<?xml version="1.0" encoding="UTF-8" standalone="no"?><svg xmlns="http://www.w3.org/2000/svg" xmlns:xlink="http://www.w3.org/1999/xlink" contentStyleType="text/css" height="241px" preserveAspectRatio="none" style="width:646px;height:241px;background:#FFFFFF;" version="1.1" viewBox="0 0 646 241" width="646px" zoomAndPan="magnify"><defs/><g><!--MD5=[20a748d5ee336a9a91751b0a3d4f0beb]
class Cliente--><g id="elem_Cliente"><rect codeLine="13" fill="#F1F1F1" height="100.8281" id="Cliente" rx="2.5" ry="2.5" style="stroke:#181818;stroke-width:0.5;" width="187.3333" x="7" y="7"/><ellipse cx="74.4167" cy="23" fill="#FFFFFF" rx="11" ry="11" style="stroke:#181818;stroke-width:1.0;"/><path d="M75.3385,20.3906 L75.3385,27.0469 L76.4948,27.0469 Q77.1042,27.0469 77.3542,27.2813 Q77.6198,27.5156 77.6198,27.9063 Q77.6198,28.2813 77.3542,28.5156 Q77.1042,28.75 76.4948,28.75 L72.5104,28.75 Q71.8854,28.75 71.6198,28.5156 Q71.3698,28.2813 71.3698,27.8906 Q71.3698,27.5156 71.6198,27.2813 Q71.8854,27.0469 72.5104,27.0469 L73.6354,27.0469 L73.6354,20.3906 L71.7917,20.3906 L71.7917,22 Q71.7917,22.6094 71.5573,22.875 Q71.3229,23.1406 70.9479,23.1406 Q70.5729,23.1406 70.3385,22.875 Q70.1042,22.6094 70.1042,22 L70.1042,18.6875 L78.9167,18.6875 L78.9167,22 Q78.9167,22.6094 78.6667,22.875 Q78.4323,23.1406 78.0573,23.1406 Q77.6823,23.1406 77.4479,22.875 Q77.2135,22.6094 77.2135,22 L77.2135,20.3906 L75.3385,20.3906 Z " fill="#000000"/><text fill="#000000" font-family="sans-serif" font-size="14" lengthAdjust="spacing" textLength="44" x="94.9167" y="28.7285">Cliente</text><line style="stroke:#181818;stroke-width:0.5;" x1="8" x2="193.3333" y1="39" y2="39"/><path d="M20.4167,47.776 C18.8067,47.776 17.5,49.0827 17.5,50.6927 C17.5,50.8794 17.5,51.066 17.535,51.241 L14,54.776 L14,57.1094 L17.5,57.1094 L17.5,54.776 L19.8333,54.776 L19.8333,53.6094 L19.8683,53.5744 C20.0433,53.6094 20.23,53.6094 20.4167,53.6094 C22.0267,53.6094 23.3333,52.3027 23.3333,50.6927 C23.3333,49.0827 22.0267,47.776 20.4167,47.776 M21,48.9427 C21.6417,48.9427 22.1667,49.4677 22.1667,50.1094 C22.1667,50.751 21.6417,51.276 21,51.276 C20.3583,51.276 19.8333,50.751 19.8333,50.1094 C19.8333,49.4677 20.3583,48.9427 21,48.9427 " fill="#B8861B" style="stroke:;stroke-width:0.0;stroke-dasharray:;"/><text fill="#000000" font-family="sans-serif" font-size="14" font-weight="bold" lengthAdjust="spacing" textLength="63" x="28.3333" y="57.5332">idCliente</text><text fill="#000000" font-family="sans-serif" font-size="14" lengthAdjust="spacing" textLength="29" x="91.3333" y="57.5332">: INT</text><path d="M17.5,65.3854 C15.5633,65.3854 14,66.9487 14,68.8854 C14,70.8221 15.5633,72.3854 17.5,72.3854 C19.4367,72.3854 21,70.8221 21,68.8854 C21,66.9487 19.4367,65.3854 17.5,65.3854 " fill="#EFEFEF" style="stroke:;stroke-width:0.0;stroke-dasharray:;"/><text fill="#000000" font-family="sans-serif" font-size="14" lengthAdjust="spacing" textLength="160" x="28.3333" y="75.1426">nombre: VARCHAR (500)</text><path d="M17.5,82.9948 C15.5633,82.9948 14,84.5581 14,86.4948 C14,88.4315 15.5633,89.9948 17.5,89.9948 C19.4367,89.9948 21,88.4315 21,86.4948 C21,84.5581 19.4367,82.9948 17.5,82.9948 " fill="#EFEFEF" style="stroke:;stroke-width:0.0;stroke-dasharray:;"/><text fill="#000000" font-family="sans-serif" font-size="14" lengthAdjust="spacing" textLength="145" x="28.3333" y="92.752">email: VARCHAR (150)</text><line style="stroke:#181818;stroke-width:1.0;" x1="8" x2="193.3333" y1="99.8281" y2="99.8281"/></g><!--MD5=[a926c88f85ce99385ed3fd3448dac0f5]
class Factura--><g id="elem_Factura"><rect codeLine="20" fill="#F1F1F1" height="83.2188" id="Factura" rx="2.5" ry="2.5" style="stroke:#181818;stroke-width:0.5;" width="122.3333" x="282.5" y="16"/><ellipse cx="316.1" cy="32" fill="#FFFFFF" rx="11" ry="11" style="stroke:#181818;stroke-width:1.0;"/><path d="M317.0219,29.3906 L317.0219,36.0469 L318.1781,36.0469 Q318.7875,36.0469 319.0375,36.2813 Q319.3031,36.5156 319.3031,36.9063 Q319.3031,37.2813 319.0375,37.5156 Q318.7875,37.75 318.1781,37.75 L314.1938,37.75 Q313.5688,37.75 313.3031,37.5156 Q313.0531,37.2813 313.0531,36.8906 Q313.0531,36.5156 313.3031,36.2813 Q313.5688,36.0469 314.1938,36.0469 L315.3188,36.0469 L315.3188,29.3906 L313.475,29.3906 L313.475,31 Q313.475,31.6094 313.2406,31.875 Q313.0063,32.1406 312.6313,32.1406 Q312.2563,32.1406 312.0219,31.875 Q311.7875,31.6094 311.7875,31 L311.7875,27.6875 L320.6,27.6875 L320.6,31 Q320.6,31.6094 320.35,31.875 Q320.1156,32.1406 319.7406,32.1406 Q319.3656,32.1406 319.1313,31.875 Q318.8969,31.6094 318.8969,31 L318.8969,29.3906 L317.0219,29.3906 Z " fill="#000000"/><text fill="#000000" font-family="sans-serif" font-size="14" lengthAdjust="spacing" textLength="49" x="334.2333" y="37.7285">Factura</text><line style="stroke:#181818;stroke-width:0.5;" x1="283.5" x2="403.8333" y1="48" y2="48"/><path d="M295.9167,56.776 C294.3067,56.776 293,58.0827 293,59.6927 C293,59.8794 293,60.066 293.035,60.241 L289.5,63.776 L289.5,66.1094 L293,66.1094 L293,63.776 L295.3333,63.776 L295.3333,62.6094 L295.3683,62.5744 C295.5433,62.6094 295.73,62.6094 295.9167,62.6094 C297.5267,62.6094 298.8333,61.3027 298.8333,59.6927 C298.8333,58.0827 297.5267,56.776 295.9167,56.776 M296.5,57.9427 C297.1417,57.9427 297.6667,58.4677 297.6667,59.1094 C297.6667,59.751 297.1417,60.276 296.5,60.276 C295.8583,60.276 295.3333,59.751 295.3333,59.1094 C295.3333,58.4677 295.8583,57.9427 296.5,57.9427 " fill="#B8861B" style="stroke:;stroke-width:0.0;stroke-dasharray:;"/><text fill="#000000" font-family="sans-serif" font-size="14" font-weight="bold" lengthAdjust="spacing" textLength="66" x="303.8333" y="66.5332">idFactura</text><text fill="#000000" font-family="sans-serif" font-size="14" lengthAdjust="spacing" textLength="29" x="369.8333" y="66.5332">: INT</text><path d="M295.9167,74.3854 C294.3067,74.3854 293,75.6921 293,77.3021 C293,77.4888 293,77.6754 293.035,77.8504 L289.5,81.3854 L289.5,83.7187 L293,83.7187 L293,81.3854 L295.3333,81.3854 L295.3333,80.2187 L295.3683,80.1837 C295.5433,80.2187 295.73,80.2187 295.9167,80.2187 C297.5267,80.2187 298.8333,78.9121 298.8333,77.3021 C298.8333,75.6921 297.5267,74.3854 295.9167,74.3854 M296.5,75.5521 C297.1417,75.5521 297.6667,76.0771 297.6667,76.7187 C297.6667,77.3604 297.1417,77.8854 296.5,77.8854 C295.8583,77.8854 295.3333,77.3604 295.3333,76.7187 C295.3333,76.0771 295.8583,75.5521 296.5,75.5521 " fill="#AAAAAA" style="stroke:;stroke-width:0.0;stroke-dasharray:;"/><text fill="#000000" font-family="sans-serif" font-size="14" lengthAdjust="spacing" textLength="84" x="303.8333" y="84.1426">idCliente: INT</text><line style="stroke:#181818;stroke-width:1.0;" x1="283.5" x2="403.8333" y1="91.2188" y2="91.2188"/></g><!--MD5=[9884e166d189446fe4825863c8acf943]
class Producto--><g id="elem_Producto"><rect codeLine="26" fill="#F1F1F1" height="100.8281" id="Producto" rx="2.5" ry="2.5" style="stroke:#181818;stroke-width:0.5;" width="179.3333" x="254" y="134"/><ellipse cx="310.9167" cy="150" fill="#FFFFFF" rx="11" ry="11" style="stroke:#181818;stroke-width:1.0;"/><path d="M311.8385,147.3906 L311.8385,154.0469 L312.9948,154.0469 Q313.6042,154.0469 313.8542,154.2813 Q314.1198,154.5156 314.1198,154.9063 Q314.1198,155.2813 313.8542,155.5156 Q313.6042,155.75 312.9948,155.75 L309.0104,155.75 Q308.3854,155.75 308.1198,155.5156 Q307.8698,155.2813 307.8698,154.8906 Q307.8698,154.5156 308.1198,154.2813 Q308.3854,154.0469 309.0104,154.0469 L310.1354,154.0469 L310.1354,147.3906 L308.2917,147.3906 L308.2917,149 Q308.2917,149.6094 308.0573,149.875 Q307.8229,150.1406 307.4479,150.1406 Q307.0729,150.1406 306.8385,149.875 Q306.6042,149.6094 306.6042,149 L306.6042,145.6875 L315.4167,145.6875 L315.4167,149 Q315.4167,149.6094 315.1667,149.875 Q314.9323,150.1406 314.5573,150.1406 Q314.1823,150.1406 313.9479,149.875 Q313.7135,149.6094 313.7135,149 L313.7135,147.3906 L311.8385,147.3906 Z " fill="#000000"/><text fill="#000000" font-family="sans-serif" font-size="14" lengthAdjust="spacing" textLength="57" x="331.4167" y="155.7285">Producto</text><line style="stroke:#181818;stroke-width:0.5;" x1="255" x2="432.3333" y1="166" y2="166"/><path d="M267.4167,174.776 C265.8067,174.776 264.5,176.0827 264.5,177.6927 C264.5,177.8794 264.5,178.066 264.535,178.241 L261,181.776 L261,184.1094 L264.5,184.1094 L264.5,181.776 L266.8333,181.776 L266.8333,180.6094 L266.8683,180.5744 C267.0433,180.6094 267.23,180.6094 267.4167,180.6094 C269.0267,180.6094 270.3333,179.3027 270.3333,177.6927 C270.3333,176.0827 269.0267,174.776 267.4167,174.776 M268,175.9427 C268.6417,175.9427 269.1667,176.4677 269.1667,177.1094 C269.1667,177.751 268.6417,178.276 268,178.276 C267.3583,178.276 266.8333,177.751 266.8333,177.1094 C266.8333,176.4677 267.3583,175.9427 268,175.9427 " fill="#B8861B" style="stroke:;stroke-width:0.0;stroke-dasharray:;"/><text fill="#000000" font-family="sans-serif" font-size="14" font-weight="bold" lengthAdjust="spacing" textLength="77" x="275.3333" y="184.5332">idProducto</text><text fill="#000000" font-family="sans-serif" font-size="14" lengthAdjust="spacing" textLength="29" x="352.3333" y="184.5332">: INT</text><path d="M264.5,192.3854 C262.5633,192.3854 261,193.9488 261,195.8854 C261,197.8221 262.5633,199.3854 264.5,199.3854 C266.4367,199.3854 268,197.8221 268,195.8854 C268,193.9488 266.4367,192.3854 264.5,192.3854 " fill="#EFEFEF" style="stroke:;stroke-width:0.0;stroke-dasharray:;"/><text fill="#000000" font-family="sans-serif" font-size="14" lengthAdjust="spacing" textLength="152" x="275.3333" y="202.1426">nombre: VARCHAR (45)</text><path d="M264.5,209.9948 C262.5633,209.9948 261,211.5581 261,213.4948 C261,215.4315 262.5633,216.9948 264.5,216.9948 C266.4367,216.9948 268,215.4315 268,213.4948 C268,211.5581 266.4367,209.9948 264.5,209.9948 " fill="#EFEFEF" style="stroke:;stroke-width:0.0;stroke-dasharray:;"/><text fill="#000000" font-family="sans-serif" font-size="14" lengthAdjust="spacing" textLength="85" x="275.3333" y="219.752">valor: FLOAT</text><line style="stroke:#181818;stroke-width:1.0;" x1="255" x2="432.3333" y1="226.8281" y2="226.8281"/></g><!--MD5=[a9db5c724ea406ad57f07659b5aac903]
class Factura_Producto--><g id="elem_Factura_Producto"><rect codeLine="33" fill="#F1F1F1" height="100.8281" id="Factura_Producto" rx="2.5" ry="2.5" style="stroke:#181818;stroke-width:0.5;" width="146" x="493" y="71"/><ellipse cx="508" cy="87" fill="#FFFFFF" rx="11" ry="11" style="stroke:#181818;stroke-width:1.0;"/><path d="M508.9219,84.3906 L508.9219,91.0469 L510.0781,91.0469 Q510.6875,91.0469 510.9375,91.2813 Q511.2031,91.5156 511.2031,91.9063 Q511.2031,92.2813 510.9375,92.5156 Q510.6875,92.75 510.0781,92.75 L506.0938,92.75 Q505.4688,92.75 505.2031,92.5156 Q504.9531,92.2813 504.9531,91.8906 Q504.9531,91.5156 505.2031,91.2813 Q505.4688,91.0469 506.0938,91.0469 L507.2188,91.0469 L507.2188,84.3906 L505.375,84.3906 L505.375,86 Q505.375,86.6094 505.1406,86.875 Q504.9063,87.1406 504.5313,87.1406 Q504.1563,87.1406 503.9219,86.875 Q503.6875,86.6094 503.6875,86 L503.6875,82.6875 L512.5,82.6875 L512.5,86 Q512.5,86.6094 512.25,86.875 Q512.0156,87.1406 511.6406,87.1406 Q511.2656,87.1406 511.0313,86.875 Q510.7969,86.6094 510.7969,86 L510.7969,84.3906 L508.9219,84.3906 Z " fill="#000000"/><text fill="#000000" font-family="sans-serif" font-size="14" lengthAdjust="spacing" textLength="114" x="522" y="92.7285">Factura_Producto</text><line style="stroke:#181818;stroke-width:0.5;" x1="494" x2="638" y1="103" y2="103"/><path d="M506.4167,111.776 C504.8067,111.776 503.5,113.0827 503.5,114.6927 C503.5,114.8794 503.5,115.066 503.535,115.241 L500,118.776 L500,121.1094 L503.5,121.1094 L503.5,118.776 L505.8333,118.776 L505.8333,117.6094 L505.8683,117.5744 C506.0433,117.6094 506.23,117.6094 506.4167,117.6094 C508.0267,117.6094 509.3333,116.3027 509.3333,114.6927 C509.3333,113.0827 508.0267,111.776 506.4167,111.776 M507,112.9427 C507.6417,112.9427 508.1667,113.4677 508.1667,114.1094 C508.1667,114.751 507.6417,115.276 507,115.276 C506.3583,115.276 505.8333,114.751 505.8333,114.1094 C505.8333,113.4677 506.3583,112.9427 507,112.9427 " fill="#AAAAAA" style="stroke:;stroke-width:0.0;stroke-dasharray:;"/><text fill="#000000" font-family="sans-serif" font-size="14" lengthAdjust="spacing" textLength="89" x="514.3333" y="121.5332">idFactura: INT</text><path d="M506.4167,129.3854 C504.8067,129.3854 503.5,130.6921 503.5,132.3021 C503.5,132.4887 503.5,132.6754 503.535,132.8504 L500,136.3854 L500,138.7188 L503.5,138.7188 L503.5,136.3854 L505.8333,136.3854 L505.8333,135.2188 L505.8683,135.1838 C506.0433,135.2188 506.23,135.2188 506.4167,135.2188 C508.0267,135.2188 509.3333,133.9121 509.3333,132.3021 C509.3333,130.6921 508.0267,129.3854 506.4167,129.3854 M507,130.5521 C507.6417,130.5521 508.1667,131.0771 508.1667,131.7188 C508.1667,132.3604 507.6417,132.8854 507,132.8854 C506.3583,132.8854 505.8333,132.3604 505.8333,131.7188 C505.8333,131.0771 506.3583,130.5521 507,130.5521 " fill="#AAAAAA" style="stroke:;stroke-width:0.0;stroke-dasharray:;"/><text fill="#000000" font-family="sans-serif" font-size="14" lengthAdjust="spacing" textLength="97" x="514.3333" y="139.1426">idProducto: INT</text><path d="M503.5,146.9948 C501.5633,146.9948 500,148.5581 500,150.4948 C500,152.4315 501.5633,153.9948 503.5,153.9948 C505.4367,153.9948 507,152.4315 507,150.4948 C507,148.5581 505.4367,146.9948 503.5,146.9948 " fill="#EFEFEF" style="stroke:;stroke-width:0.0;stroke-dasharray:;"/><text fill="#000000" font-family="sans-serif" font-size="14" lengthAdjust="spacing" textLength="83" x="514.3333" y="156.752">cantidad: INT</text><line style="stroke:#181818;stroke-width:1.0;" x1="494" x2="638" y1="163.8281" y2="163.8281"/></g><!--MD5=[244872798c3a9c365a3b3085ca3d43ba]
link Cliente to Factura--><g id="link_Cliente_Factura"><path codeLine="40" d="M202.1,57.5 C202.1,57.5 274.21,57.5 274.21,57.5 " fill="none" id="Cliente-Factura" style="stroke:#181818;stroke-width:1.0;stroke-dasharray:7.0,7.0;"/><line style="stroke:#181818;stroke-width:1.0;" x1="274.21" x2="282.21" y1="57.5" y2="51.5"/><line style="stroke:#181818;stroke-width:1.0;" x1="274.21" x2="282.21" y1="57.5" y2="63.5"/><line style="stroke:#181818;stroke-width:1.0;" x1="274.21" x2="282.21" y1="57.5" y2="57.5"/><line style="stroke:#181818;stroke-width:1.0;" x1="272.21" x2="272.21" y1="53.5" y2="61.5"/><line style="stroke:#181818;stroke-width:1.0;" x1="198.1" x2="198.1" y1="61.5" y2="53.5"/><line style="stroke:#181818;stroke-width:1.0;" x1="201.1" x2="201.1" y1="61.5" y2="53.5"/><line style="stroke:#181818;stroke-width:1.0;" x1="202.1" x2="194.1" y1="57.5" y2="57.5"/></g><!--MD5=[cd08eafb063bc0243ec01d9bb879d8d5]
link Factura to Factura_Producto--><g id="link_Factura_Factura_Producto"><path codeLine="41" d="M412.59,85 C412.59,85 484.79,85 484.79,85 " fill="none" id="Factura-Factura_Producto" style="stroke:#181818;stroke-width:1.0;stroke-dasharray:7.0,7.0;"/><line style="stroke:#181818;stroke-width:1.0;" x1="484.79" x2="492.79" y1="85" y2="79"/><line style="stroke:#181818;stroke-width:1.0;" x1="484.79" x2="492.79" y1="85" y2="91"/><line style="stroke:#181818;stroke-width:1.0;" x1="484.79" x2="492.79" y1="85" y2="85"/><line style="stroke:#181818;stroke-width:1.0;" x1="482.79" x2="482.79" y1="81" y2="89"/><line style="stroke:#181818;stroke-width:1.0;" x1="408.59" x2="408.59" y1="89" y2="81"/><line style="stroke:#181818;stroke-width:1.0;" x1="411.59" x2="411.59" y1="89" y2="81"/><line style="stroke:#181818;stroke-width:1.0;" x1="412.59" x2="404.59" y1="85" y2="85"/></g><!--MD5=[1fc7a9589a3116354bbf085246dfd9d1]
link Producto to Factura_Producto--><g id="link_Producto_Factura_Producto"><path codeLine="42" d="M441.04,153 C441.04,153 484.67,153 484.67,153 " fill="none" id="Producto-Factura_Producto" style="stroke:#181818;stroke-width:1.0;"/><line style="stroke:#181818;stroke-width:1.0;" x1="484.67" x2="492.67" y1="153" y2="147"/><line style="stroke:#181818;stroke-width:1.0;" x1="484.67" x2="492.67" y1="153" y2="159"/><line style="stroke:#181818;stroke-width:1.0;" x1="484.67" x2="492.67" y1="153" y2="153"/><line style="stroke:#181818;stroke-width:1.0;" x1="482.67" x2="482.67" y1="149" y2="157"/><line style="stroke:#181818;stroke-width:1.0;" x1="437.04" x2="437.04" y1="157" y2="149"/><line style="stroke:#181818;stroke-width:1.0;" x1="440.04" x2="440.04" y1="157" y2="149"/><line style="stroke:#181818;stroke-width:1.0;" x1="441.04" x2="433.04" y1="153" y2="153"/></g><!--MD5=[7bf74e5f07e873ab65175ed94bb34c59]
@startuml name DERE
'From this guide:
' https://raphael-leger.medium.com/automatically-generating-up-to-date-database-diagrams-with-typeorm-d1279a20545e
left to right direction
skinparam linetype ortho
hide footbox

!define primary_key(x) <b><color:#b8861b><&key></color> x</b>
!define foreign_key(x) <color:#aaaaaa><&key></color> x
!define column(x) <color:#efefef><&media-record></color> x
!define table(x) entity x << (T, white) >>


table(Cliente){
  primary_key( idCliente ): INT 
  column( nombre ): VARCHAR (500)
  column( email ): VARCHAR (150)
  - - -
}

table(Factura){
  primary_key( idFactura ): INT 
  foreign_key( idCliente ): INT 
  - - -
}

table(Producto){
  primary_key( idProducto ): INT 
  column( nombre ): VARCHAR (45) 
  column( valor ): FLOAT
  - - -
}

table(Factura_Producto){
  foreign_key( idFactura ): INT 
  foreign_key( idProducto ): INT 
  column( cantidad ): INT
  - - -
}

Cliente ||..|{ Factura
Factura ||..|{ Factura_Producto
Producto ||- -|{ Factura_Producto
@enduml

@startuml name DERE
left to right direction
skinparam linetype ortho
hide footbox



entity Cliente << (T, white) >>{
  <b><color:#b8861b><&key></color> idCliente</b>: INT 
  <color:#efefef><&media-record></color> nombre: VARCHAR (500)
  <color:#efefef><&media-record></color> email: VARCHAR (150)
  - - -
}

entity Factura << (T, white) >>{
  <b><color:#b8861b><&key></color> idFactura</b>: INT 
  <color:#aaaaaa><&key></color> idCliente: INT 
  - - -
}

entity Producto << (T, white) >>{
  <b><color:#b8861b><&key></color> idProducto</b>: INT 
  <color:#efefef><&media-record></color> nombre: VARCHAR (45) 
  <color:#efefef><&media-record></color> valor: FLOAT
  - - -
}

entity Factura_Producto << (T, white) >>{
  <color:#aaaaaa><&key></color> idFactura: INT 
  <color:#aaaaaa><&key></color> idProducto: INT 
  <color:#efefef><&media-record></color> cantidad: INT
  - - -
}

Cliente ||..|{ Factura
Factura ||..|{ Factura_Producto
Producto ||- -|{ Factura_Producto
@enduml

PlantUML version 1.2022.7(Mon Aug 22 14:01:30 ART 2022)
(GPL source distribution)
Java Runtime: Java(TM) SE Runtime Environment
JVM: Java HotSpot(TM) 64-Bit Server VM
Default Encoding: Cp1252
Language: en
Country: US
--></g></svg>