<?xml version="1.0" encoding="UTF-8" standalone="no"?><svg xmlns="http://www.w3.org/2000/svg" xmlns:xlink="http://www.w3.org/1999/xlink" contentStyleType="text/css" height="700px" preserveAspectRatio="none" style="width:3835px;height:700px;background:#FFFFFF;" version="1.1" viewBox="0 0 3835 700" width="3835px" zoomAndPan="magnify"><defs/><g><!--MD5=[a3c61d01dc390a5535ed54dafec82eb3]
class CSVLoader--><g id="elem_CSVLoader"><rect codeLine="2" fill="#F1F1F1" height="136.0469" id="CSVLoader" rx="2.5" ry="2.5" style="stroke:#181818;stroke-width:0.5;" width="502" x="7" y="51"/><ellipse cx="217.25" cy="67" fill="#ADD1B2" rx="11" ry="11" style="stroke:#181818;stroke-width:1.0;"/><path d="M220.0156,62.875 Q220.1719,62.6563 220.3594,62.5469 Q220.5469,62.4375 220.7656,62.4375 Q221.1406,62.4375 221.375,62.7031 Q221.6094,62.9531 221.6094,63.5625 L221.6094,65.0156 Q221.6094,65.625 221.375,65.8906 Q221.1406,66.1563 220.7656,66.1563 Q220.4219,66.1563 220.2188,65.9531 Q220.0156,65.7656 219.9063,65.25 Q219.8594,64.8906 219.6719,64.7031 Q219.3438,64.3281 218.7344,64.1094 Q218.125,63.8906 217.5,63.8906 Q216.7344,63.8906 216.0938,64.2188 Q215.4688,64.5469 214.9688,65.2969 Q214.4844,66.0469 214.4844,67.0781 L214.4844,68.1719 Q214.4844,69.4063 215.375,70.2344 Q216.2656,71.0469 217.8594,71.0469 Q218.7969,71.0469 219.4531,70.7969 Q219.8438,70.6406 220.2656,70.2031 Q220.5313,69.9375 220.6719,69.8594 Q220.8281,69.7813 221.0313,69.7813 Q221.3594,69.7813 221.6094,70.0469 Q221.875,70.2969 221.875,70.6406 Q221.875,70.9844 221.5313,71.3906 Q221.0313,71.9688 220.2344,72.2969 Q219.1563,72.75 217.8594,72.75 Q216.3438,72.75 215.1406,72.125 Q214.1563,71.625 213.4688,70.5625 Q212.7813,69.4844 212.7813,68.2031 L212.7813,67.0469 Q212.7813,65.7188 213.3906,64.5781 Q214.0156,63.4219 215.1094,62.8125 Q216.2031,62.1875 217.4375,62.1875 Q218.1719,62.1875 218.8125,62.3594 Q219.4688,62.5156 220.0156,62.875 Z " fill="#000000"/><text fill="#000000" font-family="sans-serif" font-size="14" lengthAdjust="spacing" textLength="73" x="237.75" y="72.7285">CSVLoader</text><line style="stroke:#181818;stroke-width:0.5;" x1="8" x2="508" y1="83" y2="83"/><line style="stroke:#181818;stroke-width:0.5;" x1="8" x2="508" y1="91" y2="91"/><text fill="#000000" font-family="sans-serif" font-size="14" lengthAdjust="spacing" textLength="258" x="13" y="109.5332">+getParser(filePath : String) : CSVParser</text><text fill="#000000" font-family="sans-serif" font-size="14" lengthAdjust="spacing" textLength="304" x="13" y="127.1426">+loadClientes(daoCliente : DAO&lt;Cliente&gt;) : void</text><text fill="#000000" font-family="sans-serif" font-size="14" lengthAdjust="spacing" textLength="343" x="13" y="144.752">+loadProductos(daoProducto : DAO&lt;Producto&gt;) : void</text><text fill="#000000" font-family="sans-serif" font-size="14" lengthAdjust="spacing" textLength="319" x="13" y="162.3613">+loadFacturas(daoFactura : DAO&lt;Factura&gt;) : void</text><text fill="#000000" font-family="sans-serif" font-size="14" lengthAdjust="spacing" textLength="490" x="13" y="179.9707">+loadFacturaProductos(daoFacturaProducto : DAO&lt;FacturaProducto&gt;) : void</text></g><!--MD5=[4a0300a6597e068a69ac5dc42e345e2c]
class DAOFactory--><g id="elem_DAOFactory"><rect codeLine="9" fill="#F1F1F1" height="153.6563" id="DAOFactory" rx="2.5" ry="2.5" style="stroke:#181818;stroke-width:0.5;" width="334" x="845" y="343.5"/><ellipse cx="968.75" cy="359.5" fill="#ADD1B2" rx="11" ry="11" style="stroke:#181818;stroke-width:1.0;"/><path d="M971.5156,355.375 Q971.6719,355.1563 971.8594,355.0469 Q972.0469,354.9375 972.2656,354.9375 Q972.6406,354.9375 972.875,355.2031 Q973.1094,355.4531 973.1094,356.0625 L973.1094,357.5156 Q973.1094,358.125 972.875,358.3906 Q972.6406,358.6563 972.2656,358.6563 Q971.9219,358.6563 971.7188,358.4531 Q971.5156,358.2656 971.4063,357.75 Q971.3594,357.3906 971.1719,357.2031 Q970.8438,356.8281 970.2344,356.6094 Q969.625,356.3906 969,356.3906 Q968.2344,356.3906 967.5938,356.7188 Q966.9688,357.0469 966.4688,357.7969 Q965.9844,358.5469 965.9844,359.5781 L965.9844,360.6719 Q965.9844,361.9063 966.875,362.7344 Q967.7656,363.5469 969.3594,363.5469 Q970.2969,363.5469 970.9531,363.2969 Q971.3438,363.1406 971.7656,362.7031 Q972.0313,362.4375 972.1719,362.3594 Q972.3281,362.2813 972.5313,362.2813 Q972.8594,362.2813 973.1094,362.5469 Q973.375,362.7969 973.375,363.1406 Q973.375,363.4844 973.0313,363.8906 Q972.5313,364.4688 971.7344,364.7969 Q970.6563,365.25 969.3594,365.25 Q967.8438,365.25 966.6406,364.625 Q965.6563,364.125 964.9688,363.0625 Q964.2813,361.9844 964.2813,360.7031 L964.2813,359.5469 Q964.2813,358.2188 964.8906,357.0781 Q965.5156,355.9219 966.6094,355.3125 Q967.7031,354.6875 968.9375,354.6875 Q969.6719,354.6875 970.3125,354.8594 Q970.9688,355.0156 971.5156,355.375 Z " fill="#000000"/><text fill="#000000" font-family="sans-serif" font-size="14" lengthAdjust="spacing" textLength="78" x="989.25" y="365.2285">DAOFactory</text><line style="stroke:#181818;stroke-width:0.5;" x1="846" x2="1178" y1="375.5" y2="375.5"/><text fill="#000000" font-family="sans-serif" font-size="14" lengthAdjust="spacing" text-decoration="underline" textLength="126" x="851" y="394.0332">+MYSQL_JDBC : int</text><line style="stroke:#181818;stroke-width:0.5;" x1="846" x2="1178" y1="401.1094" y2="401.1094"/><text fill="#000000" font-family="sans-serif" font-size="14" font-style="italic" lengthAdjust="spacing" textLength="208" x="851" y="419.6426">+getFacturaDAO() : FacturaDAO</text><text fill="#000000" font-family="sans-serif" font-size="14" font-style="italic" lengthAdjust="spacing" textLength="224" x="851" y="437.252">+getProductoDAO() : ProductoDAO</text><text fill="#000000" font-family="sans-serif" font-size="14" font-style="italic" lengthAdjust="spacing" textLength="198" x="851" y="454.8613">+getClienteDAO() : ClienteDAO</text><text fill="#000000" font-family="sans-serif" font-size="14" font-style="italic" lengthAdjust="spacing" textLength="322" x="851" y="472.4707">+getFacturaProductoDAO() : FacturaProductoDAO</text><text fill="#000000" font-family="sans-serif" font-size="14" lengthAdjust="spacing" text-decoration="underline" textLength="316" x="851" y="490.0801">+getDAOFactory(whichFactory : int) : DAOFactory</text></g><!--MD5=[9884e166d189446fe4825863c8acf943]
class Producto--><g id="elem_Producto"><rect codeLine="17" fill="#F1F1F1" height="224.0938" id="Producto" rx="2.5" ry="2.5" style="stroke:#181818;stroke-width:0.5;" width="342" x="1283" y="308.5"/><ellipse cx="1421.25" cy="324.5" fill="#ADD1B2" rx="11" ry="11" style="stroke:#181818;stroke-width:1.0;"/><path d="M1424.0156,320.375 Q1424.1719,320.1563 1424.3594,320.0469 Q1424.5469,319.9375 1424.7656,319.9375 Q1425.1406,319.9375 1425.375,320.2031 Q1425.6094,320.4531 1425.6094,321.0625 L1425.6094,322.5156 Q1425.6094,323.125 1425.375,323.3906 Q1425.1406,323.6563 1424.7656,323.6563 Q1424.4219,323.6563 1424.2188,323.4531 Q1424.0156,323.2656 1423.9063,322.75 Q1423.8594,322.3906 1423.6719,322.2031 Q1423.3438,321.8281 1422.7344,321.6094 Q1422.125,321.3906 1421.5,321.3906 Q1420.7344,321.3906 1420.0938,321.7188 Q1419.4688,322.0469 1418.9688,322.7969 Q1418.4844,323.5469 1418.4844,324.5781 L1418.4844,325.6719 Q1418.4844,326.9063 1419.375,327.7344 Q1420.2656,328.5469 1421.8594,328.5469 Q1422.7969,328.5469 1423.4531,328.2969 Q1423.8438,328.1406 1424.2656,327.7031 Q1424.5313,327.4375 1424.6719,327.3594 Q1424.8281,327.2813 1425.0313,327.2813 Q1425.3594,327.2813 1425.6094,327.5469 Q1425.875,327.7969 1425.875,328.1406 Q1425.875,328.4844 1425.5313,328.8906 Q1425.0313,329.4688 1424.2344,329.7969 Q1423.1563,330.25 1421.8594,330.25 Q1420.3438,330.25 1419.1406,329.625 Q1418.1563,329.125 1417.4688,328.0625 Q1416.7813,326.9844 1416.7813,325.7031 L1416.7813,324.5469 Q1416.7813,323.2188 1417.3906,322.0781 Q1418.0156,320.9219 1419.1094,320.3125 Q1420.2031,319.6875 1421.4375,319.6875 Q1422.1719,319.6875 1422.8125,319.8594 Q1423.4688,320.0156 1424.0156,320.375 Z " fill="#000000"/><text fill="#000000" font-family="sans-serif" font-size="14" lengthAdjust="spacing" textLength="57" x="1441.75" y="330.2285">Producto</text><line style="stroke:#181818;stroke-width:0.5;" x1="1284" x2="1624" y1="340.5" y2="340.5"/><text fill="#000000" font-family="sans-serif" font-size="14" lengthAdjust="spacing" textLength="67" x="1289" y="359.0332">id : Integer</text><text fill="#000000" font-family="sans-serif" font-size="14" lengthAdjust="spacing" textLength="97" x="1289" y="376.6426">nombre : String</text><text fill="#000000" font-family="sans-serif" font-size="14" lengthAdjust="spacing" textLength="75" x="1289" y="394.252">valor : Float</text><line style="stroke:#181818;stroke-width:0.5;" x1="1284" x2="1624" y1="401.3281" y2="401.3281"/><text fill="#000000" font-family="sans-serif" font-size="14" lengthAdjust="spacing" textLength="330" x="1289" y="419.8613">+Producto(id : Integer, nombre : String, valor : Float)</text><text fill="#000000" font-family="sans-serif" font-size="14" lengthAdjust="spacing" textLength="105" x="1289" y="437.4707">+getId() : Integer</text><text fill="#000000" font-family="sans-serif" font-size="14" lengthAdjust="spacing" textLength="153" x="1289" y="455.0801">+setId(id : Integer) : void</text><text fill="#000000" font-family="sans-serif" font-size="14" lengthAdjust="spacing" textLength="136" x="1289" y="472.6895">+getNombre() : String</text><text fill="#000000" font-family="sans-serif" font-size="14" lengthAdjust="spacing" textLength="221" x="1289" y="490.2988">+setNombre(nombre : String) : void</text><text fill="#000000" font-family="sans-serif" font-size="14" lengthAdjust="spacing" textLength="115" x="1289" y="507.9082">+getValor() : Float</text><text fill="#000000" font-family="sans-serif" font-size="14" lengthAdjust="spacing" textLength="183" x="1289" y="525.5176">+setValor(valor : Float) : void</text></g><!--MD5=[c1c3ad6493e04605368ead4d0b0acdd8]
class MySQLFacturaDAO--><g id="elem_MySQLFacturaDAO"><rect codeLine="29" fill="#F1F1F1" height="83.2188" id="MySQLFacturaDAO" rx="2.5" ry="2.5" style="stroke:#181818;stroke-width:0.5;" width="214" x="1729" y="77.5"/><ellipse cx="1769.65" cy="93.5" fill="#ADD1B2" rx="11" ry="11" style="stroke:#181818;stroke-width:1.0;"/><path d="M1772.4156,89.375 Q1772.5719,89.1563 1772.7594,89.0469 Q1772.9469,88.9375 1773.1656,88.9375 Q1773.5406,88.9375 1773.775,89.2031 Q1774.0094,89.4531 1774.0094,90.0625 L1774.0094,91.5156 Q1774.0094,92.125 1773.775,92.3906 Q1773.5406,92.6563 1773.1656,92.6563 Q1772.8219,92.6563 1772.6188,92.4531 Q1772.4156,92.2656 1772.3063,91.75 Q1772.2594,91.3906 1772.0719,91.2031 Q1771.7438,90.8281 1771.1344,90.6094 Q1770.525,90.3906 1769.9,90.3906 Q1769.1344,90.3906 1768.4938,90.7188 Q1767.8688,91.0469 1767.3688,91.7969 Q1766.8844,92.5469 1766.8844,93.5781 L1766.8844,94.6719 Q1766.8844,95.9063 1767.775,96.7344 Q1768.6656,97.5469 1770.2594,97.5469 Q1771.1969,97.5469 1771.8531,97.2969 Q1772.2438,97.1406 1772.6656,96.7031 Q1772.9313,96.4375 1773.0719,96.3594 Q1773.2281,96.2813 1773.4313,96.2813 Q1773.7594,96.2813 1774.0094,96.5469 Q1774.275,96.7969 1774.275,97.1406 Q1774.275,97.4844 1773.9313,97.8906 Q1773.4313,98.4688 1772.6344,98.7969 Q1771.5563,99.25 1770.2594,99.25 Q1768.7438,99.25 1767.5406,98.625 Q1766.5563,98.125 1765.8688,97.0625 Q1765.1813,95.9844 1765.1813,94.7031 L1765.1813,93.5469 Q1765.1813,92.2188 1765.7906,91.0781 Q1766.4156,89.9219 1767.5094,89.3125 Q1768.6031,88.6875 1769.8375,88.6875 Q1770.5719,88.6875 1771.2125,88.8594 Q1771.8688,89.0156 1772.4156,89.375 Z " fill="#000000"/><text fill="#000000" font-family="sans-serif" font-size="14" lengthAdjust="spacing" textLength="125" x="1789.35" y="99.2285">MySQLFacturaDAO</text><line style="stroke:#181818;stroke-width:0.5;" x1="1730" x2="1942" y1="109.5" y2="109.5"/><line style="stroke:#181818;stroke-width:0.5;" x1="1730" x2="1942" y1="117.5" y2="117.5"/><text fill="#000000" font-family="sans-serif" font-size="14" lengthAdjust="spacing" textLength="202" x="1735" y="136.0332">+insert(element : Factura) : void</text><text fill="#000000" font-family="sans-serif" font-size="14" lengthAdjust="spacing" textLength="132" x="1735" y="153.6426">+createTable() : void</text></g><!--MD5=[8daa3844fcca0c13284e3fb3f0faf377]
class FacturaDAO--><g id="elem_FacturaDAO"><rect codeLine="131" fill="#F1F1F1" height="48" id="FacturaDAO" rx="2.5" ry="2.5" style="stroke:#181818;stroke-width:0.5;" width="111" x="1825.5" y="396.5"/><ellipse cx="1840.5" cy="412.5" fill="#B4A7E5" rx="11" ry="11" style="stroke:#181818;stroke-width:1.0;"/><path d="M1841.4531,409.1406 L1841.4531,415.7969 L1843.1719,415.7969 Q1843.7813,415.7969 1844.0469,416.0313 Q1844.3125,416.2656 1844.3125,416.6563 Q1844.3125,417.0313 1844.0469,417.2656 Q1843.7813,417.5 1843.1719,417.5 L1838.0313,417.5 Q1837.4219,417.5 1837.1563,417.2656 Q1836.8906,417.0313 1836.8906,416.6406 Q1836.8906,416.2656 1837.1563,416.0313 Q1837.4219,415.7969 1838.0313,415.7969 L1839.75,415.7969 L1839.75,409.1406 L1838.0313,409.1406 Q1837.4219,409.1406 1837.1563,408.9063 Q1836.8906,408.6719 1836.8906,408.2813 Q1836.8906,407.9063 1837.1563,407.6719 Q1837.4219,407.4375 1838.0313,407.4375 L1843.1719,407.4375 Q1843.7813,407.4375 1844.0469,407.6719 Q1844.3125,407.9063 1844.3125,408.2813 Q1844.3125,408.6719 1844.0469,408.9063 Q1843.7813,409.1406 1843.1719,409.1406 L1841.4531,409.1406 Z " fill="#000000"/><text fill="#000000" font-family="sans-serif" font-size="14" font-style="italic" lengthAdjust="spacing" textLength="79" x="1854.5" y="418.2285">FacturaDAO</text><line style="stroke:#181818;stroke-width:0.5;" x1="1826.5" x2="1935.5" y1="428.5" y2="428.5"/><line style="stroke:#181818;stroke-width:0.5;" x1="1826.5" x2="1935.5" y1="436.5" y2="436.5"/></g><!--MD5=[07e42193d06b542bd657961ee80c2cd4]
class ProductoConTotal--><g id="elem_ProductoConTotal"><rect codeLine="34" fill="#F1F1F1" height="118.4375" id="ProductoConTotal" rx="2.5" ry="2.5" style="stroke:#181818;stroke-width:0.5;" width="479" x="1214.5" y="60"/><ellipse cx="1392.25" cy="76" fill="#ADD1B2" rx="11" ry="11" style="stroke:#181818;stroke-width:1.0;"/><path d="M1395.0156,71.875 Q1395.1719,71.6563 1395.3594,71.5469 Q1395.5469,71.4375 1395.7656,71.4375 Q1396.1406,71.4375 1396.375,71.7031 Q1396.6094,71.9531 1396.6094,72.5625 L1396.6094,74.0156 Q1396.6094,74.625 1396.375,74.8906 Q1396.1406,75.1563 1395.7656,75.1563 Q1395.4219,75.1563 1395.2188,74.9531 Q1395.0156,74.7656 1394.9063,74.25 Q1394.8594,73.8906 1394.6719,73.7031 Q1394.3438,73.3281 1393.7344,73.1094 Q1393.125,72.8906 1392.5,72.8906 Q1391.7344,72.8906 1391.0938,73.2188 Q1390.4688,73.5469 1389.9688,74.2969 Q1389.4844,75.0469 1389.4844,76.0781 L1389.4844,77.1719 Q1389.4844,78.4063 1390.375,79.2344 Q1391.2656,80.0469 1392.8594,80.0469 Q1393.7969,80.0469 1394.4531,79.7969 Q1394.8438,79.6406 1395.2656,79.2031 Q1395.5313,78.9375 1395.6719,78.8594 Q1395.8281,78.7813 1396.0313,78.7813 Q1396.3594,78.7813 1396.6094,79.0469 Q1396.875,79.2969 1396.875,79.6406 Q1396.875,79.9844 1396.5313,80.3906 Q1396.0313,80.9688 1395.2344,81.2969 Q1394.1563,81.75 1392.8594,81.75 Q1391.3438,81.75 1390.1406,81.125 Q1389.1563,80.625 1388.4688,79.5625 Q1387.7813,78.4844 1387.7813,77.2031 L1387.7813,76.0469 Q1387.7813,74.7188 1388.3906,73.5781 Q1389.0156,72.4219 1390.1094,71.8125 Q1391.2031,71.1875 1392.4375,71.1875 Q1393.1719,71.1875 1393.8125,71.3594 Q1394.4688,71.5156 1395.0156,71.875 Z " fill="#000000"/><text fill="#000000" font-family="sans-serif" font-size="14" lengthAdjust="spacing" textLength="115" x="1412.75" y="81.7285">ProductoConTotal</text><line style="stroke:#181818;stroke-width:0.5;" x1="1215.5" x2="1692.5" y1="92" y2="92"/><text fill="#000000" font-family="sans-serif" font-size="14" lengthAdjust="spacing" textLength="71" x="1220.5" y="110.5332">total : Float</text><line style="stroke:#181818;stroke-width:0.5;" x1="1215.5" x2="1692.5" y1="117.6094" y2="117.6094"/><text fill="#000000" font-family="sans-serif" font-size="14" lengthAdjust="spacing" textLength="467" x="1220.5" y="136.1426">+ProductoConTotal(id : Integer, nombre : String, valor : Float, total : Float)</text><text fill="#000000" font-family="sans-serif" font-size="14" lengthAdjust="spacing" textLength="114" x="1220.5" y="153.752">+getTotal() : Float</text><text fill="#000000" font-family="sans-serif" font-size="14" lengthAdjust="spacing" textLength="178" x="1220.5" y="171.3613">+setTotal(total : Float) : void</text></g><!--MD5=[a926c88f85ce99385ed3fd3448dac0f5]
class Factura--><g id="elem_Factura"><rect codeLine="41" fill="#F1F1F1" height="171.2656" id="Factura" rx="2.5" ry="2.5" style="stroke:#181818;stroke-width:0.5;" width="265" x="544.5" y="33.5"/><ellipse cx="648.25" cy="49.5" fill="#ADD1B2" rx="11" ry="11" style="stroke:#181818;stroke-width:1.0;"/><path d="M651.0156,45.375 Q651.1719,45.1563 651.3594,45.0469 Q651.5469,44.9375 651.7656,44.9375 Q652.1406,44.9375 652.375,45.2031 Q652.6094,45.4531 652.6094,46.0625 L652.6094,47.5156 Q652.6094,48.125 652.375,48.3906 Q652.1406,48.6563 651.7656,48.6563 Q651.4219,48.6563 651.2188,48.4531 Q651.0156,48.2656 650.9063,47.75 Q650.8594,47.3906 650.6719,47.2031 Q650.3438,46.8281 649.7344,46.6094 Q649.125,46.3906 648.5,46.3906 Q647.7344,46.3906 647.0938,46.7188 Q646.4688,47.0469 645.9688,47.7969 Q645.4844,48.5469 645.4844,49.5781 L645.4844,50.6719 Q645.4844,51.9063 646.375,52.7344 Q647.2656,53.5469 648.8594,53.5469 Q649.7969,53.5469 650.4531,53.2969 Q650.8438,53.1406 651.2656,52.7031 Q651.5313,52.4375 651.6719,52.3594 Q651.8281,52.2813 652.0313,52.2813 Q652.3594,52.2813 652.6094,52.5469 Q652.875,52.7969 652.875,53.1406 Q652.875,53.4844 652.5313,53.8906 Q652.0313,54.4688 651.2344,54.7969 Q650.1563,55.25 648.8594,55.25 Q647.3438,55.25 646.1406,54.625 Q645.1563,54.125 644.4688,53.0625 Q643.7813,51.9844 643.7813,50.7031 L643.7813,49.5469 Q643.7813,48.2188 644.3906,47.0781 Q645.0156,45.9219 646.1094,45.3125 Q647.2031,44.6875 648.4375,44.6875 Q649.1719,44.6875 649.8125,44.8594 Q650.4688,45.0156 651.0156,45.375 Z " fill="#000000"/><text fill="#000000" font-family="sans-serif" font-size="14" lengthAdjust="spacing" textLength="49" x="668.75" y="55.2285">Factura</text><line style="stroke:#181818;stroke-width:0.5;" x1="545.5" x2="808.5" y1="65.5" y2="65.5"/><text fill="#000000" font-family="sans-serif" font-size="14" lengthAdjust="spacing" textLength="67" x="550.5" y="84.0332">id : Integer</text><text fill="#000000" font-family="sans-serif" font-size="14" lengthAdjust="spacing" textLength="111" x="550.5" y="101.6426">idCliente : Integer</text><line style="stroke:#181818;stroke-width:0.5;" x1="545.5" x2="808.5" y1="108.7188" y2="108.7188"/><text fill="#000000" font-family="sans-serif" font-size="14" lengthAdjust="spacing" textLength="253" x="550.5" y="127.252">+Factura(id : Integer, idCliente : Integer)</text><text fill="#000000" font-family="sans-serif" font-size="14" lengthAdjust="spacing" textLength="105" x="550.5" y="144.8613">+getId() : Integer</text><text fill="#000000" font-family="sans-serif" font-size="14" lengthAdjust="spacing" textLength="153" x="550.5" y="162.4707">+setId(id : Integer) : void</text><text fill="#000000" font-family="sans-serif" font-size="14" lengthAdjust="spacing" textLength="149" x="550.5" y="180.0801">+getIdCliente() : Integer</text><text fill="#000000" font-family="sans-serif" font-size="14" lengthAdjust="spacing" textLength="241" x="550.5" y="197.6895">+setIdCliente(idCliente : Integer) : void</text></g><!--MD5=[960422ac8047569e04df776f6160728f]
class FacturaProducto--><g id="elem_FacturaProducto"><rect codeLine="50" fill="#F1F1F1" height="224.0938" id="FacturaProducto" rx="2.5" ry="2.5" style="stroke:#181818;stroke-width:0.5;" width="502" x="7" y="308.5"/><ellipse cx="200.75" cy="324.5" fill="#ADD1B2" rx="11" ry="11" style="stroke:#181818;stroke-width:1.0;"/><path d="M203.5156,320.375 Q203.6719,320.1563 203.8594,320.0469 Q204.0469,319.9375 204.2656,319.9375 Q204.6406,319.9375 204.875,320.2031 Q205.1094,320.4531 205.1094,321.0625 L205.1094,322.5156 Q205.1094,323.125 204.875,323.3906 Q204.6406,323.6563 204.2656,323.6563 Q203.9219,323.6563 203.7188,323.4531 Q203.5156,323.2656 203.4063,322.75 Q203.3594,322.3906 203.1719,322.2031 Q202.8438,321.8281 202.2344,321.6094 Q201.625,321.3906 201,321.3906 Q200.2344,321.3906 199.5938,321.7188 Q198.9688,322.0469 198.4688,322.7969 Q197.9844,323.5469 197.9844,324.5781 L197.9844,325.6719 Q197.9844,326.9063 198.875,327.7344 Q199.7656,328.5469 201.3594,328.5469 Q202.2969,328.5469 202.9531,328.2969 Q203.3438,328.1406 203.7656,327.7031 Q204.0313,327.4375 204.1719,327.3594 Q204.3281,327.2813 204.5313,327.2813 Q204.8594,327.2813 205.1094,327.5469 Q205.375,327.7969 205.375,328.1406 Q205.375,328.4844 205.0313,328.8906 Q204.5313,329.4688 203.7344,329.7969 Q202.6563,330.25 201.3594,330.25 Q199.8438,330.25 198.6406,329.625 Q197.6563,329.125 196.9688,328.0625 Q196.2813,326.9844 196.2813,325.7031 L196.2813,324.5469 Q196.2813,323.2188 196.8906,322.0781 Q197.5156,320.9219 198.6094,320.3125 Q199.7031,319.6875 200.9375,319.6875 Q201.6719,319.6875 202.3125,319.8594 Q202.9688,320.0156 203.5156,320.375 Z " fill="#000000"/><text fill="#000000" font-family="sans-serif" font-size="14" lengthAdjust="spacing" textLength="106" x="221.25" y="330.2285">FacturaProducto</text><line style="stroke:#181818;stroke-width:0.5;" x1="8" x2="508" y1="340.5" y2="340.5"/><text fill="#000000" font-family="sans-serif" font-size="14" lengthAdjust="spacing" textLength="116" x="13" y="359.0332">idFactura : Integer</text><text fill="#000000" font-family="sans-serif" font-size="14" lengthAdjust="spacing" textLength="124" x="13" y="376.6426">idProducto : Integer</text><text fill="#000000" font-family="sans-serif" font-size="14" lengthAdjust="spacing" textLength="110" x="13" y="394.252">cantidad : Integer</text><line style="stroke:#181818;stroke-width:0.5;" x1="8" x2="508" y1="401.3281" y2="401.3281"/><text fill="#000000" font-family="sans-serif" font-size="14" lengthAdjust="spacing" textLength="490" x="13" y="419.8613">+FacturaProducto(idFactura : Integer, idProducto : Integer, cantidad : Integer)</text><text fill="#000000" font-family="sans-serif" font-size="14" lengthAdjust="spacing" textLength="154" x="13" y="437.4707">+getIdFactura() : Integer</text><text fill="#000000" font-family="sans-serif" font-size="14" lengthAdjust="spacing" textLength="251" x="13" y="455.0801">+setIdFactura(idFactura : Integer) : void</text><text fill="#000000" font-family="sans-serif" font-size="14" lengthAdjust="spacing" textLength="162" x="13" y="472.6895">+getIdProducto() : Integer</text><text fill="#000000" font-family="sans-serif" font-size="14" lengthAdjust="spacing" textLength="267" x="13" y="490.2988">+setIdProducto(idProducto : Integer) : void</text><text fill="#000000" font-family="sans-serif" font-size="14" lengthAdjust="spacing" textLength="151" x="13" y="507.9082">+getCantidad() : Integer</text><text fill="#000000" font-family="sans-serif" font-size="14" lengthAdjust="spacing" textLength="242" x="13" y="525.5176">+setCantidad(cantidad : Integer) : void</text></g><!--MD5=[84718776d214be480e4c259efcb737fc]
class Main--><g id="elem_Main"><rect codeLine="62" fill="#F1F1F1" height="65.6094" id="Main" rx="2.5" ry="2.5" style="stroke:#181818;stroke-width:0.5;" width="183" x="544.5" y="387.5"/><ellipse cx="616.75" cy="403.5" fill="#ADD1B2" rx="11" ry="11" style="stroke:#181818;stroke-width:1.0;"/><path d="M619.5156,399.375 Q619.6719,399.1563 619.8594,399.0469 Q620.0469,398.9375 620.2656,398.9375 Q620.6406,398.9375 620.875,399.2031 Q621.1094,399.4531 621.1094,400.0625 L621.1094,401.5156 Q621.1094,402.125 620.875,402.3906 Q620.6406,402.6563 620.2656,402.6563 Q619.9219,402.6563 619.7188,402.4531 Q619.5156,402.2656 619.4063,401.75 Q619.3594,401.3906 619.1719,401.2031 Q618.8438,400.8281 618.2344,400.6094 Q617.625,400.3906 617,400.3906 Q616.2344,400.3906 615.5938,400.7188 Q614.9688,401.0469 614.4688,401.7969 Q613.9844,402.5469 613.9844,403.5781 L613.9844,404.6719 Q613.9844,405.9063 614.875,406.7344 Q615.7656,407.5469 617.3594,407.5469 Q618.2969,407.5469 618.9531,407.2969 Q619.3438,407.1406 619.7656,406.7031 Q620.0313,406.4375 620.1719,406.3594 Q620.3281,406.2813 620.5313,406.2813 Q620.8594,406.2813 621.1094,406.5469 Q621.375,406.7969 621.375,407.1406 Q621.375,407.4844 621.0313,407.8906 Q620.5313,408.4688 619.7344,408.7969 Q618.6563,409.25 617.3594,409.25 Q615.8438,409.25 614.6406,408.625 Q613.6563,408.125 612.9688,407.0625 Q612.2813,405.9844 612.2813,404.7031 L612.2813,403.5469 Q612.2813,402.2188 612.8906,401.0781 Q613.5156,399.9219 614.6094,399.3125 Q615.7031,398.6875 616.9375,398.6875 Q617.6719,398.6875 618.3125,398.8594 Q618.9688,399.0156 619.5156,399.375 Z " fill="#000000"/><text fill="#000000" font-family="sans-serif" font-size="14" lengthAdjust="spacing" textLength="30" x="637.25" y="409.2285">Main</text><line style="stroke:#181818;stroke-width:0.5;" x1="545.5" x2="726.5" y1="419.5" y2="419.5"/><line style="stroke:#181818;stroke-width:0.5;" x1="545.5" x2="726.5" y1="427.5" y2="427.5"/><text fill="#000000" font-family="sans-serif" font-size="14" lengthAdjust="spacing" text-decoration="underline" textLength="171" x="550.5" y="446.0332">+main(args : String[]) : void</text></g><!--MD5=[20a748d5ee336a9a91751b0a3d4f0beb]
class Cliente--><g id="elem_Cliente"><rect codeLine="65" fill="#F1F1F1" height="259.3125" id="Cliente" rx="2.5" ry="2.5" style="stroke:#181818;stroke-width:0.5;" width="336" x="3365" y="291"/><ellipse cx="3506.75" cy="307" fill="#ADD1B2" rx="11" ry="11" style="stroke:#181818;stroke-width:1.0;"/><path d="M3509.5156,302.875 Q3509.6719,302.6563 3509.8594,302.5469 Q3510.0469,302.4375 3510.2656,302.4375 Q3510.6406,302.4375 3510.875,302.7031 Q3511.1094,302.9531 3511.1094,303.5625 L3511.1094,305.0156 Q3511.1094,305.625 3510.875,305.8906 Q3510.6406,306.1563 3510.2656,306.1563 Q3509.9219,306.1563 3509.7188,305.9531 Q3509.5156,305.7656 3509.4063,305.25 Q3509.3594,304.8906 3509.1719,304.7031 Q3508.8438,304.3281 3508.2344,304.1094 Q3507.625,303.8906 3507,303.8906 Q3506.2344,303.8906 3505.5938,304.2188 Q3504.9688,304.5469 3504.4688,305.2969 Q3503.9844,306.0469 3503.9844,307.0781 L3503.9844,308.1719 Q3503.9844,309.4063 3504.875,310.2344 Q3505.7656,311.0469 3507.3594,311.0469 Q3508.2969,311.0469 3508.9531,310.7969 Q3509.3438,310.6406 3509.7656,310.2031 Q3510.0313,309.9375 3510.1719,309.8594 Q3510.3281,309.7813 3510.5313,309.7813 Q3510.8594,309.7813 3511.1094,310.0469 Q3511.375,310.2969 3511.375,310.6406 Q3511.375,310.9844 3511.0313,311.3906 Q3510.5313,311.9688 3509.7344,312.2969 Q3508.6563,312.75 3507.3594,312.75 Q3505.8438,312.75 3504.6406,312.125 Q3503.6563,311.625 3502.9688,310.5625 Q3502.2813,309.4844 3502.2813,308.2031 L3502.2813,307.0469 Q3502.2813,305.7188 3502.8906,304.5781 Q3503.5156,303.4219 3504.6094,302.8125 Q3505.7031,302.1875 3506.9375,302.1875 Q3507.6719,302.1875 3508.3125,302.3594 Q3508.9688,302.5156 3509.5156,302.875 Z " fill="#000000"/><text fill="#000000" font-family="sans-serif" font-size="14" lengthAdjust="spacing" textLength="44" x="3527.25" y="312.7285">Cliente</text><line style="stroke:#181818;stroke-width:0.5;" x1="3366" x2="3700" y1="323" y2="323"/><text fill="#000000" font-family="sans-serif" font-size="14" lengthAdjust="spacing" textLength="67" x="3371" y="341.5332">id : Integer</text><text fill="#000000" font-family="sans-serif" font-size="14" lengthAdjust="spacing" textLength="97" x="3371" y="359.1426">nombre : String</text><text fill="#000000" font-family="sans-serif" font-size="14" lengthAdjust="spacing" textLength="82" x="3371" y="376.752">email : String</text><text fill="#000000" font-family="sans-serif" font-size="14" lengthAdjust="spacing" textLength="146" x="3371" y="394.3613">totalFacturacion : Float</text><line style="stroke:#181818;stroke-width:0.5;" x1="3366" x2="3700" y1="401.4375" y2="401.4375"/><text fill="#000000" font-family="sans-serif" font-size="14" lengthAdjust="spacing" textLength="62" x="3371" y="419.9707">+Cliente()</text><text fill="#000000" font-family="sans-serif" font-size="14" lengthAdjust="spacing" textLength="324" x="3371" y="437.5801">+Cliente(id : Integer, nombre : String, email : String)</text><text fill="#000000" font-family="sans-serif" font-size="14" lengthAdjust="spacing" textLength="105" x="3371" y="455.1895">+getId() : Integer</text><text fill="#000000" font-family="sans-serif" font-size="14" lengthAdjust="spacing" textLength="153" x="3371" y="472.7988">+setId(id : Integer) : void</text><text fill="#000000" font-family="sans-serif" font-size="14" lengthAdjust="spacing" textLength="136" x="3371" y="490.4082">+getNombre() : String</text><text fill="#000000" font-family="sans-serif" font-size="14" lengthAdjust="spacing" textLength="221" x="3371" y="508.0176">+setNombre(nombre : String) : void</text><text fill="#000000" font-family="sans-serif" font-size="14" lengthAdjust="spacing" textLength="121" x="3371" y="525.627">+getEmail() : String</text><text fill="#000000" font-family="sans-serif" font-size="14" lengthAdjust="spacing" textLength="191" x="3371" y="543.2363">+setEmail(email : String) : void</text></g><!--MD5=[bbe926bf88f67c5ed6ffe7b16c8e9a78]
class MySQLJDBCDAOFactory--><g id="elem_MySQLJDBCDAOFactory"><rect codeLine="79" fill="#F1F1F1" height="224.0938" id="MySQLJDBCDAOFactory" rx="2.5" ry="2.5" style="stroke:#181818;stroke-width:0.5;" width="334" x="845" y="7"/><ellipse cx="928.25" cy="23" fill="#ADD1B2" rx="11" ry="11" style="stroke:#181818;stroke-width:1.0;"/><path d="M931.0156,18.875 Q931.1719,18.6563 931.3594,18.5469 Q931.5469,18.4375 931.7656,18.4375 Q932.1406,18.4375 932.375,18.7031 Q932.6094,18.9531 932.6094,19.5625 L932.6094,21.0156 Q932.6094,21.625 932.375,21.8906 Q932.1406,22.1563 931.7656,22.1563 Q931.4219,22.1563 931.2188,21.9531 Q931.0156,21.7656 930.9063,21.25 Q930.8594,20.8906 930.6719,20.7031 Q930.3438,20.3281 929.7344,20.1094 Q929.125,19.8906 928.5,19.8906 Q927.7344,19.8906 927.0938,20.2188 Q926.4688,20.5469 925.9688,21.2969 Q925.4844,22.0469 925.4844,23.0781 L925.4844,24.1719 Q925.4844,25.4063 926.375,26.2344 Q927.2656,27.0469 928.8594,27.0469 Q929.7969,27.0469 930.4531,26.7969 Q930.8438,26.6406 931.2656,26.2031 Q931.5313,25.9375 931.6719,25.8594 Q931.8281,25.7813 932.0313,25.7813 Q932.3594,25.7813 932.6094,26.0469 Q932.875,26.2969 932.875,26.6406 Q932.875,26.9844 932.5313,27.3906 Q932.0313,27.9688 931.2344,28.2969 Q930.1563,28.75 928.8594,28.75 Q927.3438,28.75 926.1406,28.125 Q925.1563,27.625 924.4688,26.5625 Q923.7813,25.4844 923.7813,24.2031 L923.7813,23.0469 Q923.7813,21.7188 924.3906,20.5781 Q925.0156,19.4219 926.1094,18.8125 Q927.2031,18.1875 928.4375,18.1875 Q929.1719,18.1875 929.8125,18.3594 Q930.4688,18.5156 931.0156,18.875 Z " fill="#000000"/><text fill="#000000" font-family="sans-serif" font-size="14" lengthAdjust="spacing" textLength="159" x="948.75" y="28.7285">MySQLJDBCDAOFactory</text><line style="stroke:#181818;stroke-width:0.5;" x1="846" x2="1178" y1="39" y2="39"/><text fill="#000000" font-family="sans-serif" font-size="14" lengthAdjust="spacing" text-decoration="underline" textLength="85" x="851" y="57.5332">driver : String</text><text fill="#000000" font-family="sans-serif" font-size="14" lengthAdjust="spacing" text-decoration="underline" textLength="65" x="851" y="75.1426">uri : String</text><text fill="#000000" font-family="sans-serif" font-size="14" lengthAdjust="spacing" text-decoration="underline" textLength="77" x="851" y="92.752">user : String</text><text fill="#000000" font-family="sans-serif" font-size="14" lengthAdjust="spacing" text-decoration="underline" textLength="109" x="851" y="110.3613">password : String</text><text fill="#000000" font-family="sans-serif" font-size="14" lengthAdjust="spacing" text-decoration="underline" textLength="153" x="851" y="127.9707">connection : Connection</text><line style="stroke:#181818;stroke-width:0.5;" x1="846" x2="1178" y1="135.0469" y2="135.0469"/><text fill="#000000" font-family="sans-serif" font-size="14" lengthAdjust="spacing" text-decoration="underline" textLength="194" x="851" y="153.5801">+getConnection() : Connection</text><text fill="#000000" font-family="sans-serif" font-size="14" lengthAdjust="spacing" textLength="208" x="851" y="171.1895">+getFacturaDAO() : FacturaDAO</text><text fill="#000000" font-family="sans-serif" font-size="14" lengthAdjust="spacing" textLength="224" x="851" y="188.7988">+getProductoDAO() : ProductoDAO</text><text fill="#000000" font-family="sans-serif" font-size="14" lengthAdjust="spacing" textLength="198" x="851" y="206.4082">+getClienteDAO() : ClienteDAO</text><text fill="#000000" font-family="sans-serif" font-size="14" lengthAdjust="spacing" textLength="322" x="851" y="224.0176">+getFacturaProductoDAO() : FacturaProductoDAO</text></g><!--MD5=[54fc9c47797d9c786131256e9761d860]
class MySQLClienteDAO--><g id="elem_MySQLClienteDAO"><rect codeLine="92" fill="#F1F1F1" height="136.0469" id="MySQLClienteDAO" rx="2.5" ry="2.5" style="stroke:#181818;stroke-width:0.5;" width="436" x="1978" y="51"/><ellipse cx="2131.75" cy="67" fill="#ADD1B2" rx="11" ry="11" style="stroke:#181818;stroke-width:1.0;"/><path d="M2134.5156,62.875 Q2134.6719,62.6563 2134.8594,62.5469 Q2135.0469,62.4375 2135.2656,62.4375 Q2135.6406,62.4375 2135.875,62.7031 Q2136.1094,62.9531 2136.1094,63.5625 L2136.1094,65.0156 Q2136.1094,65.625 2135.875,65.8906 Q2135.6406,66.1563 2135.2656,66.1563 Q2134.9219,66.1563 2134.7188,65.9531 Q2134.5156,65.7656 2134.4063,65.25 Q2134.3594,64.8906 2134.1719,64.7031 Q2133.8438,64.3281 2133.2344,64.1094 Q2132.625,63.8906 2132,63.8906 Q2131.2344,63.8906 2130.5938,64.2188 Q2129.9688,64.5469 2129.4688,65.2969 Q2128.9844,66.0469 2128.9844,67.0781 L2128.9844,68.1719 Q2128.9844,69.4063 2129.875,70.2344 Q2130.7656,71.0469 2132.3594,71.0469 Q2133.2969,71.0469 2133.9531,70.7969 Q2134.3438,70.6406 2134.7656,70.2031 Q2135.0313,69.9375 2135.1719,69.8594 Q2135.3281,69.7813 2135.5313,69.7813 Q2135.8594,69.7813 2136.1094,70.0469 Q2136.375,70.2969 2136.375,70.6406 Q2136.375,70.9844 2136.0313,71.3906 Q2135.5313,71.9688 2134.7344,72.2969 Q2133.6563,72.75 2132.3594,72.75 Q2130.8438,72.75 2129.6406,72.125 Q2128.6563,71.625 2127.9688,70.5625 Q2127.2813,69.4844 2127.2813,68.2031 L2127.2813,67.0469 Q2127.2813,65.7188 2127.8906,64.5781 Q2128.5156,63.4219 2129.6094,62.8125 Q2130.7031,62.1875 2131.9375,62.1875 Q2132.6719,62.1875 2133.3125,62.3594 Q2133.9688,62.5156 2134.5156,62.875 Z " fill="#000000"/><text fill="#000000" font-family="sans-serif" font-size="14" lengthAdjust="spacing" textLength="120" x="2152.25" y="72.7285">MySQLClienteDAO</text><line style="stroke:#181818;stroke-width:0.5;" x1="1979" x2="2413" y1="83" y2="83"/><line style="stroke:#181818;stroke-width:0.5;" x1="1979" x2="2413" y1="91" y2="91"/><text fill="#000000" font-family="sans-serif" font-size="14" lengthAdjust="spacing" textLength="205" x="1984" y="109.5332">+getCliente(id : Integer) : Cliente</text><text fill="#000000" font-family="sans-serif" font-size="14" lengthAdjust="spacing" textLength="424" x="1984" y="127.1426">+updateCliente(id : Integer, nombre : String, email : String) : Cliente</text><text fill="#000000" font-family="sans-serif" font-size="14" lengthAdjust="spacing" textLength="132" x="1984" y="144.752">+createTable() : void</text><text fill="#000000" font-family="sans-serif" font-size="14" lengthAdjust="spacing" textLength="197" x="1984" y="162.3613">+insert(element : Cliente) : void</text><text fill="#000000" font-family="sans-serif" font-size="14" lengthAdjust="spacing" textLength="280" x="1984" y="179.9707">+getClientesPorFacturacion() : List&lt;Cliente&gt;</text></g><!--MD5=[39dd3b7cb0699609db8eca871375aa6f]
class ClienteDAO--><g id="elem_ClienteDAO"><rect codeLine="125" fill="#F1F1F1" height="100.8281" id="ClienteDAO" rx="2.5" ry="2.5" style="stroke:#181818;stroke-width:0.5;" width="436" x="1997" y="370"/><ellipse cx="2173.75" cy="386" fill="#B4A7E5" rx="11" ry="11" style="stroke:#181818;stroke-width:1.0;"/><path d="M2174.7031,382.6406 L2174.7031,389.2969 L2176.4219,389.2969 Q2177.0313,389.2969 2177.2969,389.5313 Q2177.5625,389.7656 2177.5625,390.1563 Q2177.5625,390.5313 2177.2969,390.7656 Q2177.0313,391 2176.4219,391 L2171.2813,391 Q2170.6719,391 2170.4063,390.7656 Q2170.1406,390.5313 2170.1406,390.1406 Q2170.1406,389.7656 2170.4063,389.5313 Q2170.6719,389.2969 2171.2813,389.2969 L2173,389.2969 L2173,382.6406 L2171.2813,382.6406 Q2170.6719,382.6406 2170.4063,382.4063 Q2170.1406,382.1719 2170.1406,381.7813 Q2170.1406,381.4063 2170.4063,381.1719 Q2170.6719,380.9375 2171.2813,380.9375 L2176.4219,380.9375 Q2177.0313,380.9375 2177.2969,381.1719 Q2177.5625,381.4063 2177.5625,381.7813 Q2177.5625,382.1719 2177.2969,382.4063 Q2177.0313,382.6406 2176.4219,382.6406 L2174.7031,382.6406 Z " fill="#000000"/><text fill="#000000" font-family="sans-serif" font-size="14" font-style="italic" lengthAdjust="spacing" textLength="74" x="2194.25" y="391.7285">ClienteDAO</text><line style="stroke:#181818;stroke-width:0.5;" x1="1998" x2="2432" y1="402" y2="402"/><line style="stroke:#181818;stroke-width:0.5;" x1="1998" x2="2432" y1="410" y2="410"/><text fill="#000000" font-family="sans-serif" font-size="14" lengthAdjust="spacing" textLength="205" x="2003" y="428.5332">+getCliente(id : Integer) : Cliente</text><text fill="#000000" font-family="sans-serif" font-size="14" lengthAdjust="spacing" textLength="424" x="2003" y="446.1426">+updateCliente(id : Integer, nombre : String, email : String) : Cliente</text><text fill="#000000" font-family="sans-serif" font-size="14" lengthAdjust="spacing" textLength="280" x="2003" y="463.752">+getClientesPorFacturacion() : List&lt;Cliente&gt;</text></g><!--MD5=[b764c30061f47970abe8e329a9071933]
class MySQLProductoDAO--><g id="elem_MySQLProductoDAO"><rect codeLine="100" fill="#F1F1F1" height="136.0469" id="MySQLProductoDAO" rx="2.5" ry="2.5" style="stroke:#181818;stroke-width:0.5;" width="447" x="2449.5" y="51"/><ellipse cx="2602.25" cy="67" fill="#ADD1B2" rx="11" ry="11" style="stroke:#181818;stroke-width:1.0;"/><path d="M2605.0156,62.875 Q2605.1719,62.6563 2605.3594,62.5469 Q2605.5469,62.4375 2605.7656,62.4375 Q2606.1406,62.4375 2606.375,62.7031 Q2606.6094,62.9531 2606.6094,63.5625 L2606.6094,65.0156 Q2606.6094,65.625 2606.375,65.8906 Q2606.1406,66.1563 2605.7656,66.1563 Q2605.4219,66.1563 2605.2188,65.9531 Q2605.0156,65.7656 2604.9063,65.25 Q2604.8594,64.8906 2604.6719,64.7031 Q2604.3438,64.3281 2603.7344,64.1094 Q2603.125,63.8906 2602.5,63.8906 Q2601.7344,63.8906 2601.0938,64.2188 Q2600.4688,64.5469 2599.9688,65.2969 Q2599.4844,66.0469 2599.4844,67.0781 L2599.4844,68.1719 Q2599.4844,69.4063 2600.375,70.2344 Q2601.2656,71.0469 2602.8594,71.0469 Q2603.7969,71.0469 2604.4531,70.7969 Q2604.8438,70.6406 2605.2656,70.2031 Q2605.5313,69.9375 2605.6719,69.8594 Q2605.8281,69.7813 2606.0313,69.7813 Q2606.3594,69.7813 2606.6094,70.0469 Q2606.875,70.2969 2606.875,70.6406 Q2606.875,70.9844 2606.5313,71.3906 Q2606.0313,71.9688 2605.2344,72.2969 Q2604.1563,72.75 2602.8594,72.75 Q2601.3438,72.75 2600.1406,72.125 Q2599.1563,71.625 2598.4688,70.5625 Q2597.7813,69.4844 2597.7813,68.2031 L2597.7813,67.0469 Q2597.7813,65.7188 2598.3906,64.5781 Q2599.0156,63.4219 2600.1094,62.8125 Q2601.2031,62.1875 2602.4375,62.1875 Q2603.1719,62.1875 2603.8125,62.3594 Q2604.4688,62.5156 2605.0156,62.875 Z " fill="#000000"/><text fill="#000000" font-family="sans-serif" font-size="14" lengthAdjust="spacing" textLength="133" x="2622.75" y="72.7285">MySQLProductoDAO</text><line style="stroke:#181818;stroke-width:0.5;" x1="2450.5" x2="2895.5" y1="83" y2="83"/><line style="stroke:#181818;stroke-width:0.5;" x1="2450.5" x2="2895.5" y1="91" y2="91"/><text fill="#000000" font-family="sans-serif" font-size="14" lengthAdjust="spacing" textLength="231" x="2455.5" y="109.5332">+getProducto(id : Integer) : Producto</text><text fill="#000000" font-family="sans-serif" font-size="14" lengthAdjust="spacing" textLength="435" x="2455.5" y="127.1426">+getProductosByIdFactura(idFactura : Integer) : ArrayList&lt;Producto&gt;</text><text fill="#000000" font-family="sans-serif" font-size="14" lengthAdjust="spacing" textLength="210" x="2455.5" y="144.752">+insert(element : Producto) : void</text><text fill="#000000" font-family="sans-serif" font-size="14" lengthAdjust="spacing" textLength="132" x="2455.5" y="162.3613">+createTable() : void</text><text fill="#000000" font-family="sans-serif" font-size="14" lengthAdjust="spacing" textLength="286" x="2455.5" y="179.9707">+getProductoMayorRecaudacion() : Producto</text></g><!--MD5=[03f99e2680d23e7d992db30924a77c4c]
class ProductoDAO--><g id="elem_ProductoDAO"><rect codeLine="120" fill="#F1F1F1" height="83.2188" id="ProductoDAO" rx="2.5" ry="2.5" style="stroke:#181818;stroke-width:0.5;" width="298" x="2487" y="379"/><ellipse cx="2588.25" cy="395" fill="#B4A7E5" rx="11" ry="11" style="stroke:#181818;stroke-width:1.0;"/><path d="M2589.2031,391.6406 L2589.2031,398.2969 L2590.9219,398.2969 Q2591.5313,398.2969 2591.7969,398.5313 Q2592.0625,398.7656 2592.0625,399.1563 Q2592.0625,399.5313 2591.7969,399.7656 Q2591.5313,400 2590.9219,400 L2585.7813,400 Q2585.1719,400 2584.9063,399.7656 Q2584.6406,399.5313 2584.6406,399.1406 Q2584.6406,398.7656 2584.9063,398.5313 Q2585.1719,398.2969 2585.7813,398.2969 L2587.5,398.2969 L2587.5,391.6406 L2585.7813,391.6406 Q2585.1719,391.6406 2584.9063,391.4063 Q2584.6406,391.1719 2584.6406,390.7813 Q2584.6406,390.4063 2584.9063,390.1719 Q2585.1719,389.9375 2585.7813,389.9375 L2590.9219,389.9375 Q2591.5313,389.9375 2591.7969,390.1719 Q2592.0625,390.4063 2592.0625,390.7813 Q2592.0625,391.1719 2591.7969,391.4063 Q2591.5313,391.6406 2590.9219,391.6406 L2589.2031,391.6406 Z " fill="#000000"/><text fill="#000000" font-family="sans-serif" font-size="14" font-style="italic" lengthAdjust="spacing" textLength="87" x="2608.75" y="400.7285">ProductoDAO</text><line style="stroke:#181818;stroke-width:0.5;" x1="2488" x2="2784" y1="411" y2="411"/><line style="stroke:#181818;stroke-width:0.5;" x1="2488" x2="2784" y1="419" y2="419"/><text fill="#000000" font-family="sans-serif" font-size="14" lengthAdjust="spacing" textLength="231" x="2493" y="437.5332">+getProducto(id : Integer) : Producto</text><text fill="#000000" font-family="sans-serif" font-size="14" lengthAdjust="spacing" textLength="286" x="2493" y="455.1426">+getProductoMayorRecaudacion() : Producto</text></g><!--MD5=[4b114b33868df72d4d6c2749110663bf]
class ClienteConFacturacion--><g id="elem_ClienteConFacturacion"><rect codeLine="108" fill="#F1F1F1" height="118.4375" id="ClienteConFacturacion" rx="2.5" ry="2.5" style="stroke:#181818;stroke-width:0.5;" width="591" x="3237.5" y="60"/><ellipse cx="3456.25" cy="76" fill="#ADD1B2" rx="11" ry="11" style="stroke:#181818;stroke-width:1.0;"/><path d="M3459.0156,71.875 Q3459.1719,71.6563 3459.3594,71.5469 Q3459.5469,71.4375 3459.7656,71.4375 Q3460.1406,71.4375 3460.375,71.7031 Q3460.6094,71.9531 3460.6094,72.5625 L3460.6094,74.0156 Q3460.6094,74.625 3460.375,74.8906 Q3460.1406,75.1563 3459.7656,75.1563 Q3459.4219,75.1563 3459.2188,74.9531 Q3459.0156,74.7656 3458.9063,74.25 Q3458.8594,73.8906 3458.6719,73.7031 Q3458.3438,73.3281 3457.7344,73.1094 Q3457.125,72.8906 3456.5,72.8906 Q3455.7344,72.8906 3455.0938,73.2188 Q3454.4688,73.5469 3453.9688,74.2969 Q3453.4844,75.0469 3453.4844,76.0781 L3453.4844,77.1719 Q3453.4844,78.4063 3454.375,79.2344 Q3455.2656,80.0469 3456.8594,80.0469 Q3457.7969,80.0469 3458.4531,79.7969 Q3458.8438,79.6406 3459.2656,79.2031 Q3459.5313,78.9375 3459.6719,78.8594 Q3459.8281,78.7813 3460.0313,78.7813 Q3460.3594,78.7813 3460.6094,79.0469 Q3460.875,79.2969 3460.875,79.6406 Q3460.875,79.9844 3460.5313,80.3906 Q3460.0313,80.9688 3459.2344,81.2969 Q3458.1563,81.75 3456.8594,81.75 Q3455.3438,81.75 3454.1406,81.125 Q3453.1563,80.625 3452.4688,79.5625 Q3451.7813,78.4844 3451.7813,77.2031 L3451.7813,76.0469 Q3451.7813,74.7188 3452.3906,73.5781 Q3453.0156,72.4219 3454.1094,71.8125 Q3455.2031,71.1875 3456.4375,71.1875 Q3457.1719,71.1875 3457.8125,71.3594 Q3458.4688,71.5156 3459.0156,71.875 Z " fill="#000000"/><text fill="#000000" font-family="sans-serif" font-size="14" lengthAdjust="spacing" textLength="145" x="3476.75" y="81.7285">ClienteConFacturacion</text><line style="stroke:#181818;stroke-width:0.5;" x1="3238.5" x2="3827.5" y1="92" y2="92"/><text fill="#000000" font-family="sans-serif" font-size="14" lengthAdjust="spacing" textLength="146" x="3243.5" y="110.5332">totalFacturacion : Float</text><line style="stroke:#181818;stroke-width:0.5;" x1="3238.5" x2="3827.5" y1="117.6094" y2="117.6094"/><text fill="#000000" font-family="sans-serif" font-size="14" lengthAdjust="spacing" textLength="579" x="3243.5" y="136.1426">+ClienteConFacturacion(id : Integer, nombre : String, email : String, totalFacturacion : Float)</text><text fill="#000000" font-family="sans-serif" font-size="14" lengthAdjust="spacing" textLength="189" x="3243.5" y="153.752">+getTotalFacturacion() : Float</text><text fill="#000000" font-family="sans-serif" font-size="14" lengthAdjust="spacing" textLength="328" x="3243.5" y="171.3613">+setTotalFacturacion(totalFacturacion : Float) : void</text></g><!--MD5=[60b562fc9580f6550fb50dd792af2936]
class MySQLFacturaProductoDAO--><g id="elem_MySQLFacturaProductoDAO"><rect codeLine="115" fill="#F1F1F1" height="83.2188" id="MySQLFacturaProductoDAO" rx="2.5" ry="2.5" style="stroke:#181818;stroke-width:0.5;" width="271" x="2931.5" y="77.5"/><ellipse cx="2972.15" cy="93.5" fill="#ADD1B2" rx="11" ry="11" style="stroke:#181818;stroke-width:1.0;"/><path d="M2974.9156,89.375 Q2975.0719,89.1563 2975.2594,89.0469 Q2975.4469,88.9375 2975.6656,88.9375 Q2976.0406,88.9375 2976.275,89.2031 Q2976.5094,89.4531 2976.5094,90.0625 L2976.5094,91.5156 Q2976.5094,92.125 2976.275,92.3906 Q2976.0406,92.6563 2975.6656,92.6563 Q2975.3219,92.6563 2975.1188,92.4531 Q2974.9156,92.2656 2974.8063,91.75 Q2974.7594,91.3906 2974.5719,91.2031 Q2974.2438,90.8281 2973.6344,90.6094 Q2973.025,90.3906 2972.4,90.3906 Q2971.6344,90.3906 2970.9938,90.7188 Q2970.3688,91.0469 2969.8688,91.7969 Q2969.3844,92.5469 2969.3844,93.5781 L2969.3844,94.6719 Q2969.3844,95.9063 2970.275,96.7344 Q2971.1656,97.5469 2972.7594,97.5469 Q2973.6969,97.5469 2974.3531,97.2969 Q2974.7438,97.1406 2975.1656,96.7031 Q2975.4313,96.4375 2975.5719,96.3594 Q2975.7281,96.2813 2975.9313,96.2813 Q2976.2594,96.2813 2976.5094,96.5469 Q2976.775,96.7969 2976.775,97.1406 Q2976.775,97.4844 2976.4313,97.8906 Q2975.9313,98.4688 2975.1344,98.7969 Q2974.0563,99.25 2972.7594,99.25 Q2971.2438,99.25 2970.0406,98.625 Q2969.0563,98.125 2968.3688,97.0625 Q2967.6813,95.9844 2967.6813,94.7031 L2967.6813,93.5469 Q2967.6813,92.2188 2968.2906,91.0781 Q2968.9156,89.9219 2970.0094,89.3125 Q2971.1031,88.6875 2972.3375,88.6875 Q2973.0719,88.6875 2973.7125,88.8594 Q2974.3688,89.0156 2974.9156,89.375 Z " fill="#000000"/><text fill="#000000" font-family="sans-serif" font-size="14" lengthAdjust="spacing" textLength="182" x="2991.85" y="99.2285">MySQLFacturaProductoDAO</text><line style="stroke:#181818;stroke-width:0.5;" x1="2932.5" x2="3201.5" y1="109.5" y2="109.5"/><line style="stroke:#181818;stroke-width:0.5;" x1="2932.5" x2="3201.5" y1="117.5" y2="117.5"/><text fill="#000000" font-family="sans-serif" font-size="14" lengthAdjust="spacing" textLength="259" x="2937.5" y="136.0332">+insert(element : FacturaProducto) : void</text><text fill="#000000" font-family="sans-serif" font-size="14" lengthAdjust="spacing" textLength="132" x="2937.5" y="153.6426">+createTable() : void</text></g><!--MD5=[9b17cb3a3a4f571edd36562da3e22203]
class FacturaProductoDAO--><g id="elem_FacturaProductoDAO"><rect codeLine="134" fill="#F1F1F1" height="48" id="FacturaProductoDAO" rx="2.5" ry="2.5" style="stroke:#181818;stroke-width:0.5;" width="168" x="2902" y="396.5"/><ellipse cx="2917" cy="412.5" fill="#B4A7E5" rx="11" ry="11" style="stroke:#181818;stroke-width:1.0;"/><path d="M2917.9531,409.1406 L2917.9531,415.7969 L2919.6719,415.7969 Q2920.2813,415.7969 2920.5469,416.0313 Q2920.8125,416.2656 2920.8125,416.6563 Q2920.8125,417.0313 2920.5469,417.2656 Q2920.2813,417.5 2919.6719,417.5 L2914.5313,417.5 Q2913.9219,417.5 2913.6563,417.2656 Q2913.3906,417.0313 2913.3906,416.6406 Q2913.3906,416.2656 2913.6563,416.0313 Q2913.9219,415.7969 2914.5313,415.7969 L2916.25,415.7969 L2916.25,409.1406 L2914.5313,409.1406 Q2913.9219,409.1406 2913.6563,408.9063 Q2913.3906,408.6719 2913.3906,408.2813 Q2913.3906,407.9063 2913.6563,407.6719 Q2913.9219,407.4375 2914.5313,407.4375 L2919.6719,407.4375 Q2920.2813,407.4375 2920.5469,407.6719 Q2920.8125,407.9063 2920.8125,408.2813 Q2920.8125,408.6719 2920.5469,408.9063 Q2920.2813,409.1406 2919.6719,409.1406 L2917.9531,409.1406 Z " fill="#000000"/><text fill="#000000" font-family="sans-serif" font-size="14" font-style="italic" lengthAdjust="spacing" textLength="136" x="2931" y="418.2285">FacturaProductoDAO</text><line style="stroke:#181818;stroke-width:0.5;" x1="2903" x2="3069" y1="428.5" y2="428.5"/><line style="stroke:#181818;stroke-width:0.5;" x1="2903" x2="3069" y1="436.5" y2="436.5"/></g><!--MD5=[384ca5efd7404dfd65476772df22927a]
class DAO--><g id="elem_DAO"><rect codeLine="137" fill="#F1F1F1" height="83.2188" id="DAO" rx="2.5" ry="2.5" style="stroke:#181818;stroke-width:0.5;" width="174" x="2366" y="610"/><ellipse cx="2433.75" cy="626" fill="#B4A7E5" rx="11" ry="11" style="stroke:#181818;stroke-width:1.0;"/><path d="M2434.7031,622.6406 L2434.7031,629.2969 L2436.4219,629.2969 Q2437.0313,629.2969 2437.2969,629.5313 Q2437.5625,629.7656 2437.5625,630.1563 Q2437.5625,630.5313 2437.2969,630.7656 Q2437.0313,631 2436.4219,631 L2431.2813,631 Q2430.6719,631 2430.4063,630.7656 Q2430.1406,630.5313 2430.1406,630.1406 Q2430.1406,629.7656 2430.4063,629.5313 Q2430.6719,629.2969 2431.2813,629.2969 L2433,629.2969 L2433,622.6406 L2431.2813,622.6406 Q2430.6719,622.6406 2430.4063,622.4063 Q2430.1406,622.1719 2430.1406,621.7813 Q2430.1406,621.4063 2430.4063,621.1719 Q2430.6719,620.9375 2431.2813,620.9375 L2436.4219,620.9375 Q2437.0313,620.9375 2437.2969,621.1719 Q2437.5625,621.4063 2437.5625,621.7813 Q2437.5625,622.1719 2437.2969,622.4063 Q2437.0313,622.6406 2436.4219,622.6406 L2434.7031,622.6406 Z " fill="#000000"/><text fill="#000000" font-family="sans-serif" font-size="14" font-style="italic" lengthAdjust="spacing" textLength="30" x="2454.25" y="631.7285">DAO</text><line style="stroke:#181818;stroke-width:0.5;" x1="2367" x2="2539" y1="642" y2="642"/><line style="stroke:#181818;stroke-width:0.5;" x1="2367" x2="2539" y1="650" y2="650"/><text fill="#000000" font-family="sans-serif" font-size="14" lengthAdjust="spacing" textLength="162" x="2372" y="668.5332">+insert(element : T) : void</text><text fill="#000000" font-family="sans-serif" font-size="14" lengthAdjust="spacing" textLength="132" x="2372" y="686.1426">+createTable() : void</text></g><!--MD5=[36aad809794d60384ef12e9a789b078e]
link MySQLFacturaDAO to FacturaDAO--><g id="link_MySQLFacturaDAO_FacturaDAO"><path codeLine="33" d="M1842.12,160.7 C1850.58,217.02 1865.79,318.29 1874.47,376.04 " fill="none" id="MySQLFacturaDAO-to-FacturaDAO" style="stroke:#181818;stroke-width:1.0;stroke-dasharray:7.0,7.0;"/><polygon fill="none" points="1881.45,375.37,1877.5,396.19,1867.6,377.45,1881.45,375.37" style="stroke:#181818;stroke-width:1.0;"/></g><!--MD5=[80a8e30d2a2da8e4f09f9443e710f660]
link ProductoConTotal to Producto--><g id="link_ProductoConTotal_Producto"><path codeLine="40" d="M1454,178.1 C1454,209.46 1454,249.54 1454,287.99 " fill="none" id="ProductoConTotal-to-Producto" style="stroke:#181818;stroke-width:1.0;"/><polygon fill="none" points="1461,288.2,1454,308.2,1447,288.2,1461,288.2" style="stroke:#181818;stroke-width:1.0;"/></g><!--MD5=[5c18017fc709f5ff10d21f9a22cfeb9c]
link MySQLJDBCDAOFactory to DAOFactory--><g id="link_MySQLJDBCDAOFactory_DAOFactory"><path codeLine="91" d="M1012,231.1 C1012,261.25 1012,293.65 1012,322.93 " fill="none" id="MySQLJDBCDAOFactory-to-DAOFactory" style="stroke:#181818;stroke-width:1.0;"/><polygon fill="none" points="1019,323.12,1012,343.12,1005,323.12,1019,323.12" style="stroke:#181818;stroke-width:1.0;"/></g><!--MD5=[d424a6885ca0c8c4661c463d93994722]
link MySQLClienteDAO to ClienteDAO--><g id="link_MySQLClienteDAO_ClienteDAO"><path codeLine="99" d="M2200.26,187.21 C2203.33,235.55 2207.45,300.56 2210.56,349.52 " fill="none" id="MySQLClienteDAO-to-ClienteDAO" style="stroke:#181818;stroke-width:1.0;stroke-dasharray:7.0,7.0;"/><polygon fill="none" points="2217.56,349.35,2211.84,369.75,2203.59,350.24,2217.56,349.35" style="stroke:#181818;stroke-width:1.0;"/></g><!--MD5=[55a07da7f2c8e82689be1bd3cf482f8e]
link MySQLProductoDAO to ProductoDAO--><g id="link_MySQLProductoDAO_ProductoDAO"><path codeLine="107" d="M2664.7,187.21 C2658.34,238.67 2649.65,309.04 2643.5,358.81 " fill="none" id="MySQLProductoDAO-to-ProductoDAO" style="stroke:#181818;stroke-width:1.0;stroke-dasharray:7.0,7.0;"/><polygon fill="none" points="2650.43,359.77,2641.03,378.76,2636.54,358.05,2650.43,359.77" style="stroke:#181818;stroke-width:1.0;"/></g><!--MD5=[37cb0d0f13afa423af2a15b19b9aaba7]
link ClienteConFacturacion to Cliente--><g id="link_ClienteConFacturacion_Cliente"><path codeLine="114" d="M3533,178.1 C3533,204.73 3533,237.63 3533,270.49 " fill="none" id="ClienteConFacturacion-to-Cliente" style="stroke:#181818;stroke-width:1.0;"/><polygon fill="none" points="3540,270.89,3533,290.89,3526,270.89,3540,270.89" style="stroke:#181818;stroke-width:1.0;"/></g><!--MD5=[fd79cdca767e7dd48a127804ef1d1f85]
link MySQLFacturaProductoDAO to FacturaProductoDAO--><g id="link_MySQLFacturaProductoDAO_FacturaProductoDAO"><path codeLine="119" d="M3055.99,160.7 C3040.69,217.27 3013.13,319.19 2997.55,376.8 " fill="none" id="MySQLFacturaProductoDAO-to-FacturaProductoDAO" style="stroke:#181818;stroke-width:1.0;stroke-dasharray:7.0,7.0;"/><polygon fill="none" points="3004.28,378.71,2992.3,396.19,2990.77,375.06,3004.28,378.71" style="stroke:#181818;stroke-width:1.0;"/></g><!--MD5=[6b1c7e268042849a465dc7ceb243024d]
link ProductoDAO to DAO--><g id="link_ProductoDAO_DAO"><path codeLine="124" d="M2603.49,462.18 C2574.18,498.86 2530.79,553.16 2498.12,594.04 " fill="none" id="ProductoDAO-to-DAO" style="stroke:#181818;stroke-width:1.0;"/><polygon fill="none" points="2503.46,598.56,2485.51,609.82,2492.53,589.82,2503.46,598.56" style="stroke:#181818;stroke-width:1.0;"/></g><!--MD5=[4da2d2bb497cc972f72899ded35968ce]
link ClienteDAO to DAO--><g id="link_ClienteDAO_DAO"><path codeLine="130" d="M2266.64,471.19 C2304.83,507.93 2356.81,557.95 2396.18,595.83 " fill="none" id="ClienteDAO-to-DAO" style="stroke:#181818;stroke-width:1.0;"/><polygon fill="none" points="2401.03,590.78,2410.59,609.69,2391.32,600.87,2401.03,590.78" style="stroke:#181818;stroke-width:1.0;"/></g><!--MD5=[d75f82f9039da75fa4399f12734d1229]
link FacturaDAO to DAO--><g id="link_FacturaDAO_DAO"><path codeLine="133" d="M1892.02,444.57 C1907.3,473.92 1937.74,523.9 1979,550 C2090.73,620.69 2243.94,642.46 2345.57,648.74 " fill="none" id="FacturaDAO-to-DAO" style="stroke:#181818;stroke-width:1.0;"/><polygon fill="none" points="2346.22,641.76,2365.81,649.82,2345.47,655.74,2346.22,641.76" style="stroke:#181818;stroke-width:1.0;"/></g><!--MD5=[3f2826b6ae78bd817a5f622c53a80d57]
link FacturaProductoDAO to DAO--><g id="link_FacturaProductoDAO_DAO"><path codeLine="136" d="M2959.11,444.61 C2924.76,473.06 2862.49,521.15 2802,550 C2724.52,586.95 2630.76,613.02 2559.93,629.33 " fill="none" id="FacturaProductoDAO-to-DAO" style="stroke:#181818;stroke-width:1.0;"/><polygon fill="none" points="2561.18,636.23,2540.14,633.78,2558.12,622.57,2561.18,636.23" style="stroke:#181818;stroke-width:1.0;"/></g><!--MD5=[cc5bf3db181c40795a73cd45254fad50]
@startuml
skinparam classAttributeIconSize 0
class CSVLoader{
+ getParser(filePath : String) : CSVParser
+ loadClientes(daoCliente : DAO<Cliente>) : void
+ loadProductos(daoProducto : DAO<Producto>) : void
+ loadFacturas(daoFactura : DAO<Factura>) : void
+ loadFacturaProductos(daoFacturaProducto : DAO<FacturaProducto>) : void
}
class DAOFactory{
+ {static} MYSQL_JDBC : int
+ {abstract} getFacturaDAO() : FacturaDAO
+ {abstract} getProductoDAO() : ProductoDAO
+ {abstract} getClienteDAO() : ClienteDAO
+ {abstract} getFacturaProductoDAO() : FacturaProductoDAO
+ {static} getDAOFactory(whichFactory : int) : DAOFactory
}
class Producto{
id : Integer
nombre : String
valor : Float
+ Producto(id : Integer, nombre : String, valor : Float)
+ getId() : Integer
+ setId(id : Integer) : void
+ getNombre() : String
+ setNombre(nombre : String) : void
+ getValor() : Float
+ setValor(valor : Float) : void
}
class MySQLFacturaDAO{
+ insert(element : Factura) : void
+ createTable() : void
}
MySQLFacturaDAO ..|> FacturaDAO
class ProductoConTotal{
total : Float
+ ProductoConTotal(id : Integer, nombre : String, valor : Float, total : Float)
+ getTotal() : Float
+ setTotal(total : Float) : void
}
ProductoConTotal - -|> Producto
class Factura{
id : Integer
idCliente : Integer
+ Factura(id : Integer, idCliente : Integer)
+ getId() : Integer
+ setId(id : Integer) : void
+ getIdCliente() : Integer
+ setIdCliente(idCliente : Integer) : void
}
class FacturaProducto{
idFactura : Integer
idProducto : Integer
cantidad : Integer
+ FacturaProducto(idFactura : Integer, idProducto : Integer, cantidad : Integer)
+ getIdFactura() : Integer
+ setIdFactura(idFactura : Integer) : void
+ getIdProducto() : Integer
+ setIdProducto(idProducto : Integer) : void
+ getCantidad() : Integer
+ setCantidad(cantidad : Integer) : void
}
class Main{
+ {static} main(args : String[]) : void
}
class Cliente{
id : Integer
nombre : String
email : String
totalFacturacion : Float
+ Cliente()
+ Cliente(id : Integer, nombre : String, email : String)
+ getId() : Integer
+ setId(id : Integer) : void
+ getNombre() : String
+ setNombre(nombre : String) : void
+ getEmail() : String
+ setEmail(email : String) : void
}
class MySQLJDBCDAOFactory{
{static} driver : String
{static} uri : String
{static} user : String
{static} password : String
{static} connection : Connection
+ {static} getConnection() : Connection
+ getFacturaDAO() : FacturaDAO
+ getProductoDAO() : ProductoDAO
+ getClienteDAO() : ClienteDAO
+ getFacturaProductoDAO() : FacturaProductoDAO
}
MySQLJDBCDAOFactory - -|> DAOFactory
class MySQLClienteDAO{
+ getCliente(id : Integer) : Cliente
+ updateCliente(id : Integer, nombre : String, email : String) : Cliente
+ createTable() : void
+ insert(element : Cliente) : void
+ getClientesPorFacturacion() : List<Cliente>
}
MySQLClienteDAO ..|> ClienteDAO
class MySQLProductoDAO{
+ getProducto(id : Integer) : Producto
+ getProductosByIdFactura(idFactura : Integer) : ArrayList<Producto>
+ insert(element : Producto) : void
+ createTable() : void
+ getProductoMayorRecaudacion() : Producto
}
MySQLProductoDAO ..|> ProductoDAO
class ClienteConFacturacion{
totalFacturacion : Float
+ ClienteConFacturacion(id : Integer, nombre : String, email : String, totalFacturacion : Float)
+ getTotalFacturacion() : Float
+ setTotalFacturacion(totalFacturacion : Float) : void
}
ClienteConFacturacion - -|> Cliente
class MySQLFacturaProductoDAO{
+ insert(element : FacturaProducto) : void
+ createTable() : void
}
MySQLFacturaProductoDAO ..|> FacturaProductoDAO
interface ProductoDAO{
+ getProducto(id : Integer) : Producto
+ getProductoMayorRecaudacion() : Producto
}
ProductoDAO - -|> DAO
interface ClienteDAO{
+ getCliente(id : Integer) : Cliente
+ updateCliente(id : Integer, nombre : String, email : String) : Cliente
+ getClientesPorFacturacion() : List<Cliente>
}
ClienteDAO - -|> DAO
interface FacturaDAO{
}
FacturaDAO - -|> DAO
interface FacturaProductoDAO{
}
FacturaProductoDAO - -|> DAO
interface DAO{
+ insert(element : T) : void
+ createTable() : void
}
@enduml

PlantUML version 1.2022.7(Mon Aug 22 14:01:30 ART 2022)
(GPL source distribution)
Java Runtime: Java(TM) SE Runtime Environment
JVM: Java HotSpot(TM) 64-Bit Server VM
Default Encoding: Cp1252
Language: es
Country: AR
--></g></svg>